/* XPM */
static char *f2e3c799d11b4f0a969bda42e0114d01ZF29HgtL3kYrDEM3[] = {
/* columns rows colors chars-per-pixel */
"64 64 195 2 ",
"   c #0E0000",
".  c #140400",
"X  c #1A0600",
"o  c #150C02",
"O  c #1B0B01",
"+  c #1A0F09",
"@  c #1B1104",
"#  c #12130E",
"$  c #1C140B",
"%  c #1C180F",
"&  c #151614",
"*  c #1B1713",
"=  c #171813",
"-  c #1D1A15",
";  c #1D1D1A",
":  c #240600",
">  c #240B00",
",  c #290B00",
"<  c #231304",
"1  c #2C1401",
"2  c #2E1905",
"3  c #261609",
"4  c #25190C",
"5  c #2B1B0C",
"6  c #311501",
"7  c #341B05",
"8  c #381E07",
"9  c #331D0A",
"0  c #391E0A",
"q  c #231D14",
"w  c #2B1E12",
"e  c #231E19",
"r  c #1F201B",
"t  c #35210D",
"y  c #3C220C",
"u  c #242017",
"i  c #2D2114",
"p  c #24221D",
"a  c #2C251B",
"s  c #342313",
"d  c #3A2513",
"f  c #3C2817",
"g  c #33261A",
"h  c #35291C",
"j  c #3C2B1B",
"k  c #242422",
"l  c #2B2621",
"z  c #272823",
"x  c #2E2A22",
"c  c #342D24",
"v  c #3B2E22",
"b  c #332E29",
"n  c #343027",
"m  c #3D3125",
"M  c #36312A",
"N  c #3C342B",
"B  c #3C382F",
"V  c #3C3731",
"C  c #3E3A34",
"Z  c #40260F",
"A  c #412711",
"S  c #442A14",
"D  c #482E17",
"F  c #412E1C",
"G  c #492F1A",
"H  c #45311E",
"J  c #4C341D",
"K  c #402E20",
"L  c #443323",
"P  c #4C3522",
"I  c #4E3925",
"U  c #42362C",
"Y  c #493628",
"T  c #43392D",
"R  c #4C3C2D",
"E  c #503722",
"W  c #533A24",
"Q  c #533E2B",
"!  c #583F29",
"~  c #433C33",
"^  c #4A3E33",
"/  c #423E39",
"(  c #513F31",
")  c #56412D",
"_  c #5A422C",
"`  c #4C4135",
"'  c #4B4339",
"]  c #544334",
"[  c #5A4534",
"{  c #5D4936",
"}  c #524538",
"|  c #5A4739",
" . c #56483A",
".. c #5C4B3B",
"X. c #624B36",
"o. c #694D35",
"O. c #624D3C",
"+. c #694F38",
"@. c #66513D",
"#. c #6B533D",
"$. c #72553D",
"%. c #77593F",
"&. c #544C41",
"*. c #5C4D40",
"=. c #565752",
"-. c #575853",
";. c #5A5B56",
":. c #5C5D59",
">. c #634F40",
",. c #655343",
"<. c #6A5543",
"1. c #6E5946",
"2. c #6B5749",
"3. c #6D5B4B",
"4. c #715740",
"5. c #745A43",
"6. c #7A5D45",
"7. c #735C4A",
"8. c #795F49",
"9. c #6F5F51",
"0. c #605F5B",
"q. c #76614D",
"w. c #7C624C",
"e. c #61625E",
"r. c #736152",
"t. c #7D6551",
"y. c #7F6954",
"u. c #776758",
"i. c #7B6A5B",
"p. c #656662",
"a. c #7F6F60",
"s. c #84664E",
"d. c #82644C",
"f. c #86684E",
"g. c #86684E",
"h. c #846550",
"j. c #826652",
"k. c #806A55",
"l. c #846A54",
"z. c #886A50",
"x. c #8A6C52",
"c. c #8C6E56",
"v. c #8A6C55",
"b. c #846D5D",
"n. c #856D59",
"m. c #8A6F5A",
"M. c #87725F",
"N. c #8A715B",
"B. c #8A715C",
"V. c #8C715B",
"C. c #95775F",
"Z. c #94765E",
"A. c #827263",
"S. c #8B7563",
"D. c #8E7966",
"F. c #8E7968",
"G. c #967762",
"H. c #927963",
"J. c #977961",
"K. c #977B65",
"L. c #9A7D66",
"P. c #957F6A",
"I. c #937D6A",
"U. c #9B7F69",
"Y. c #9F8167",
"T. c #96806B",
"R. c #96806C",
"E. c #9C806A",
"W. c #9B826C",
"Q. c #978173",
"!. c #9B8570",
"~. c #9C8671",
"^. c #9F8876",
"/. c #9F8974",
"(. c #A08067",
"). c #A28269",
"_. c #A0826A",
"`. c #A1856F",
"'. c #A4866E",
"]. c #A3846C",
"[. c #A8896F",
"{. c #A38771",
"}. c #A58973",
"|. c #AC8C73",
" X c #AB8C73",
".X c #A48E79",
"XX c #AB8F79",
"oX c #AA8F78",
"OX c #AE9076",
"+X c #A7917C",
"@X c #AC907A",
"#X c #AD917A",
"$X c #B09077",
"%X c #B3947B",
"&X c #B39781",
/* pixels */
"$ e k :.N 3 ) X.3.h ..J $.Z.Q [ .._ x.%.E ,.w 9...Q < c :.k q @ @ q p ;.c < Q { r.4 2.P 6.h.] | | ) c.%.G ,.g 3.O.) < m :.z e $ ",
"l p / b i } ] j ..f d #.8 N.E @.[ [ 4.S { L s ,.j ] } i b / a x x u / n i ] ] j O.s f #.y t.{ O.O._ w.D _ L 9 >.j Q ] i b C p l ",
"& C m L ` ~ ` v N.).y q.3 . w.d.z.w.3 O 7.7 G.B.U ' ~ ^ j j / ; ; / f j ` ~ ' L H.J.A 3.< O q.d.d.5.O < y.7 '.B.v ` ~ } L v / & ",
"p.C j 2 i U @ 5 y ).@X2 . . 7 g.6.A . O 9 `.|.y O o ^ v f L M =.=.n F d m ^ o O y |.E.9 . . A w.s.7 . . 2 XX).y 5 @ T i 2 j C p.",
"h w ` h . ] ] @.T.w.7 9 t q.<.J P _ k.t t y 7.^.r.| R   g ^ i N N i R g   ] | q.!.6.7 y 9 b.[ E J #.q.9 y 7 t.P.,.] ] . v } w a ",
"5 ..N v ] ,.E W S.j < > W.7 F ,.7.d 7 E.y . L i.W J O...T T  .3 3  .U T ..@.J E M.L X 7 {.1 f 2.2.s y V.8 O L S.! E O.] m U *.5 ",
"I ] ' o [ W , 6.H O 2 8.|.{.L 5 5 s Y.%X<.f O Y 8.: P ] + ` ] I I ] ` o [ E : 6.F O 2 7.|. Xg s 4 Y E.$X4.t . L 6., E ] + ' ] I ",
"O.f h 5 @.W 5.#.9 j D./.D 8.3.u.i.1.w.D !.S.Y 2 4.5.E ,.i h j 1.1.j h 5 <.W 5.4.9 Y S.R.G w.3.u.u.3.w.S }.S.F t #.5.W @.5 h f O.",
"r.,.l.8 W.M.F d o.6.W 1.s g L 1.7.H j i 2._ 6.#.s j F.W.8 j.<.i.i.,.j.7 ~.F.F t #.6._ 2.i j F 7.1.L g s 1.W 6.+.d F S.W.y n.2.3.",
"3 9  X|.w.F . H w.6 E | o U ] H J R ~ o [ ! , w.j . s n.[. Xd i 5 j  X$Xt.s . F 5., E ] o ` ] I L ] U o | E 6 w.j . F n.'. X2 5 ",
"7.f 8 L.y . j t.W P { ] N U ,.s 5 ..T m ] X.J E Q.s X 1 {.Z y @.2.9 y L.9 X f D.! J O.] m U | 3 s ,.U m ] { E W n.s . 1 }.8 H 2.",
"G X.t.f < y #.+X7.| ] . m ` w a a q } m . ] [ 3.P.q.9 y 9 1.@.! P 2.7.F 1 9 5.^.2.] ] . m } w a a w ` m . ] | 7.~.6.y 9 2 t.[ E ",
"$.y O O d L.%Xy 5 o T s 2 j N e.e.B j 2 s U + w S ).}.2 3 3 y 6.d.7 < . d {. X8 5 o U i 2 j C p.e.N j 2 i U + w D |.L.1 3 < S o.",
"s.l.. 5 O.D Z.n.g N ~ } L U C ; ; / m L } U ~ h k.{.S 7.3   j.g.8.n.  s ,.S ).N.j ~ T } L j C & ; C U L ` ~ N g w.J.D 1.< . w.V.",
"O.) 8.1 #.9 I >.L ] *.a b C * l a q B b a  .] L 2.j 9 _ 8 s._ @.2.Q j.6 O.9 F @.j ] } a M C u c l * C b a *.] L ,.L 9 { 7 7._ { ",
"| [ V.s.E @.h r.@.Q 5 v ;.z - q $ q p :.N 3 ] O.r.v ,.! d.g._ ..| [ z.d.W ,.v u.O.) 3 N :.p q $ q - z ;.c 3 Q ,.3.h O.E d.c.[ | ",
"| { z.s.J ,.j u.1.[ O c :.k e $ $ q p ;.v 3 [ <.i.v [ P d.c.{ ....>.d.w.I ,.h a.,.) < c ;.p q $ 4 q p ;.c < [ 2.u.v ..P d.c.{ | ",
"{ W 8.8 O.F F ..j Q } g V / p p a u / B g  .Q f [ j j @.7 7.Q 2...[ r.t O.f s ,.f R ] g N / q a a u / B h  .] j O.F j O.8 w.W X.",
"s.n.. 3 7.8 ).t.L ^ U ^ j v / ; ; / h j ^ U ` L S.`.7 2.w . l.6.w.y.  < r.y `.N.L ^ U R j f / ; ; / j j ` T ` L t.E.8 7.5 . m.h.",
"6.7 < . 7 }. XD O o T h s j M ;.:.N j s j T o @ y '.&X9 X . 0 z.z.9 O . t XX'.y < o T f s F N :.:.M j t f T o @ S [.@X2 O O 8 6.",
"S X.y.9 y 1 w.^.7.| (   g ^ i m v i ^ g   ] [ 7.T.w.7 d y 7.O.I I O.u.9 d 1 q.T.7.[ ]   g ^ i m m i ^ g   ] [ 7./.w.6 t s r.O.F ",
"q.d 8 L.1 > 9 n.W J @.| U U  .3 < } U U | @.J E R.s X 1 {.y d ,.3.9 9 W.1 > f D.E J @.| T T ] < 3  .U U | #.J W n.9 < 1 L.7 f r.",
"4 s '.'.w.s O L w., E ) . ~ ] Q Q ] ~ o Q J , w.j . s k.].{.j h s f  XOX8.2 O L w., J Q o ^ ] W Q ] ~ o Q E , w.L O s j.].{.s 4 ",
"3.2.k.S T.I.f 9 #.5._ 2.i h j <.<.j j i <.! 5.#.9 f S.~.y n.2.u.i.,.j.D P.P.F 9 #.5.! <.s j F <.,.j h i <.! 5.#.t f S.W.Z N.,.2.",
"O.j v w ,._ 6.+.9 j D.}.y l.,.u.A.O.j.8 W.F.L 9 #.5._ <.i j F 1.2.F h w <.! 5.$.2 L I.W.y t.O.A.u.,.l.y }.F.j 9 +.w.W <.i g F { ",
"I ] ` o [ E : 5.Y . 9 8.|. Xj i w f  X%Xq.s . j 6., E [ o ` ] I I ] ^ o ] E : 6.F O 2 q. X Xf g i F  X|.8.9 . Y 6.X _ ) o &.Y Q ",
"s  .N N | X.J _ D.f X 8 K.y 9 3.3.2 y L.7 X j S._ E @.] m U | 5 5 | U m ] @.E _ S.f > 1 {.9 9 3.3.9 y K.9 X f D._ J [ ] U m ..s ",
"h 4 ^ v O ] ] 1.!.5.8 7 F 5.<.P P 2.7.F 1 9 5.^.<.] ] . m } w h h w ] L O ] ] <.W.8.1 y f u.@.P P 2.7.F 7 8 5.!.<...R O L T a a ",
"e.B f 2 i U + 3 y  X}.d . > 7 z.d.7 < . d }.[.y 4 o U i 2 j B p.p.N j 2 s T + 3 Z ].@X2 o O d z.v.7 < . d }. Xy 5 o ` 5 1 L b e.",
"& / m L ` ^ ^ g N.).S #.s   n.6.6.B.  w 2.A L.V.j ~ U } L j C & = C j L } ^ ~ j V.E.y 1.3   b.w.8.n.  s ,.S ).N.h ` ` ` H L C # ",
"b l / M a } ] j O.F 9 #.7 j.W @.,.[ j.1 O.9 j 2.F ] ` i M / p x c i / N g ] ] F ,.s s @.9 t.] O.>.W k.7 #.9 F O.j ..T a B M b a ",
"$ - ; :.N < ) 1.i.v ..J d.z.{ ..] ..z.d.Q ,.g u.<.) < m e.k q @ $ q k 0.N 3 [ ,.i.h ..! 6.z...| ..| h.d.P ..v i.1.I 3 c ;.p $ 4 ",
"$ - ; :.N < ) <.i.L ] E 5.c.[ ..| O.h.6.W >.h i.,._ 3 m :.p q $ @ q k :.N 3 _ @.u.h @.Q 6.d.O.| *.| v.w.W ..m i.7.Q < N ;.; q $ ",
"b l / M a } ] F O.j 9 @.7 j.Q @.O.] k.6 ,.9 f @.F ] } i M C u x x p C M a } ] F O.f t <.6 j.) O.O.Q j.y O.s j O.F Q } a n / a x ",
"& / v K ` ^ ' h n.'.8 7.3 . j.w.8.B.  w ,.A L.S.j ~ T } L j C & & V v L } ~ ~ h V.L.S #.5   N.6.d.j.  5 7.y '.n.g ` ~ ` L L / & ",
"e.B f 2 w U @ 4 y ].@X9 O O 8 z.z.9 < . s {. Xy 4 o U s 2 f B p.p.B f 2 i U o 4 y  X{.y . < 8 z.z.0 . O 7 #X].y < $ U 5 2 j M e.",
"g 4 ` m O ] ] 2.W.5.6 y d q.#.P J <.7.H 2 9 5.W.2.] ] . m } w h g q ` m . ] ] <.W.4.8 2 H 7.<.J P O.r.s y 1 7.W.2.| ] . L ` $ c ",
"s  .N U | X.J ! I.t > 1 {.7 d 2.3.2 y E.9 X j S._ E @.] m U | 5 5  .U m ] O.P _ S.j X 7 E.Z 9 3.3.s 7 W.1 > s I._ J { ] U N ] s ",
"I ] ` @ [ E : 5.Y . 2 8.|. XF i g f {.$X7.t O H 6., E ] o ` ] I I ] ~ o ] E , 6.L O 9 5.$X Xf s i j @X Xt.2 . Y 6.: J [ o ` ] P ",
"O.j h 5 @._ 6.#.t f I.T.A t.2.u.A.O.j.y ~.I.L 2 $.6.! <.i j F 1.2.F h w <.! 5.#.2 L D.W.y k.O.A.u.,.j.y ^.I.j 9 #.$._ 2.4 j L { ",
"2.2.n.S P.D.f t #.5.! <.i j j @.<.F v i 2._ 5.#.9 F F.W.A l.>.i.u.,.j.8 ~.D.j 9 4.5.! <.i v F 1.<.j v s 1._ 5.#.9 f S.W.Z N.,.3.",
"4 s '.'.w.s O L d., P Q o ^ ] Q Q ] ~ o Q J , w.H O 2 q.|.@Xf g w j  X|.8.9 . L 6., P ] o ` ] I Q ] ~ o Q J , w.L O s j.'. Xs 5 ",
"r.d 8 L.6 > t n.W J @.| T ~  .3 < } U U ..@.J E D.d > 1 {.7 9 3.2.9 y L.9 X f D.! J O.] m U  .3 3  .U U | @.J W n.9 < 1 E.7 d r.",
"F X.t.9 d 1 t.~.q.| (   g ^ i N v i ^ h   ] [ 7.T.8.1 t s r.O.P J <.5.F 7 8 4.W.<.] ] . v } w g N i ` h   ] | q.~.w.1 t s r.O.F ",
"6.7 < . 7  X XS @ o ~ h s j M ;.:.M j t f T o @ y ).#X9 X . y z.v.7 O   y }. Xy 4 o U i 2 j V p.:.M F s j ~ o @ S [.@X1 O O 8 6.",
"s.n.. 3 7.8 ).w.L ' U ` j v / ; ; / h j ^ U ` L N.).y 7.3   l.8.d.n.  s #.S ).V.j ~ ~ } L v C & ; C f j ` T ` m w.E.8 7.5 . m.h.",
"{ Q 8.y O.F F O.j ]  .c V / p a a q / B h ] R f ,.f f #.8 t.[ O.@.Q l.7 #.9 F O.F ] ] i M C p x a u / B h  .Q f ..F j O.8 q.W ..",
"[ { z.g.J O.j u.1.[ < c :.k e $ $ q p ;.c < ) ,.a.h O.! 6.v.O.....{ z.d.E O.v i.,.) < v :.k q @ 4 u p ;.m 3 [ 2.u.v ..P d.c.| | ",
"| [ V.d.! ,.h 9.<.Q 3 c ;.z - q $ q ; :.N 3 [ @.r.v ,.W d.s.[ ..] [ v.d.E ..v u.O.) 3 N :.p q $ 4 - z ;.m 5 Q @.r.h O.E d.V.[ ..",
"{ _ 8.8 X.9 Y ,.Y ] ..a b C * a x p C M a  .] j 2.F 2 X.6 n.! @.1.Q 7.6 X.f F O.j ] } a M C u c a % C b i ..] L >.Y s X.7 5.[ >.",
"c.w.. < 5.G L.t.g N U ` L U C ; & C v L } ~ ~ v l.).J <.5   l.s.d.k.  3 7.Z '.n.j ~ T } L j C = ; C L L ` T N h n.J.A ,.3 X j.z.",
"o.A O 3 1 L.|.G w o U i 2 j N e.p.V j 2 i U + 5 A '.E.t O 5 8 6.w.y O < 9 XX].y 5 o U i 2 j C p.e.N j 2 i U + 5 Z $X{.9 < . A $.",
"E [ w.2 9 y 5./.7.| ] . m } w a g w } m . ] ] 2.R.5.y 7 d #.<.! P ,.t.d 9 1 8.}.2.] ] . m } w a a q } L O ] [ 1..X4.9 2 9 b.{ J ",
"2.H 8 {.1 . s b.! P { ] N U ,.s 3  .U m ] O.P _ R.f . 7 E.D t ,.3.s 7 W.6 < s D.! J O.] m U | 3 i ,.U N ] { J E t.s O 7 {.6 H 7.",
"5 2  X].n.F . j w.6 E | o U ] H I ] ^ o [ E , 6.j . f j.$X'.j i w f  X Xn.s . j 5., E ] o ` ] I H ] U o | E 6 w.F . j n. X$X2 3 ",
"3.2.n.y T.M.F d +.6.E 1.s g L 1.7.F h w 2._ 6.#.t F S.!.7 j.2.i.i.2.j.8 W.S.j d #.6._ 2.i j F 7.1.L g i 1.W 6.+.t F S.W.y n.2.r.",
"O.f h 5 @.! 5.#.9 j D.~.S 7.3.u.i.2.t.S !.S.Y 9 4.5.W <.w h j 2.7.j g 5 <.! 5.#.9 L S.P.D w.2.u.u.2.w.Z .XS.F 9 #.5.W @.5 j j O.",
"I ] ' o ] W , 6.F O 2 w.[.{.H 5 i f {.|.w.2 O F 6.: J ] + ` ] I I ] ' @ ] J : w.f O 2 w. X).f g 3 Y L.%X#.s . L 6., E ] o ' ] P ",
"3 ..U m ] O.P W S.j > 1 L.8 f ,.3.t 7 {.1 > j S.E J O.| ~ ~  .3 3  .T ~ | X.J W I.f X 1 {.y s ,.2.9 D v.y . Y S.W J @.] v N ..5 ",
"a q ` h . ] ] ,.P.t.1 d 7 t.@.J P @.q.d y 1 w.W.q.[ R   g ^ a N U i T i   ] | 7.D.t.7 F 9 7.X.! G 1.7.d 1 y w.W.@.] ] . j ` w h ",
"p.C j 2 i T @ 5 y ). X9 . O 7 s.d.8 O . 1  X(.Z O o ^ v f L M -.;.n j s m ` o O D ).E.1 . 3 8 6.z.6 O   s {.[.y 5 @ U i 2 F C p.",
"& C v L } ^ ' v N.).y q.3 . w.d.w.k.. 3 5.y L.S.L ' ~ ^ j v / ; = / m j R U ' T n.).S r.<   j.h.d.q.. 5 r.y ).B.m ` T ` L L / & ",
"l p C b i } ] j O.s F X.y n.! @.@.) l.8 #.f 9 >.j ] } i b / p l a a / M w ] ] F 2.9 d O.d n.[ O.>.Q k.A { F s O.j Q } i M / u a ",
"@ e z :.N 3 ) O.r.g ,.S 6.c.[ [ | ) z.%.! ,.w 9.X.) < c :.k e o $ q r ;.m 3 Q [ r.5 3.E 6.d.[ .. .[ c.6.F ,.g r.{ ) 3 m :.p q $ "
};
