/* XPM */
static char *eeded22e4ffb4661e339579b5f9156fc8aTxWxz2j1tqTevi[] = {
/* columns rows colors chars-per-pixel */
"64 64 239 2 ",
"   c #04091E",
".  c #0A0B1E",
"X  c #02051A",
"o  c #090F23",
"O  c #060C22",
"+  c #0C1226",
"@  c #121224",
"#  c #171A2C",
"$  c #181E31",
"%  c #3C252B",
"&  c #2D2D3C",
"*  c #252535",
"=  c #3A2A31",
"-  c #3F2F3A",
";  c #402527",
":  c #412729",
">  c #402E32",
",  c #44343A",
"<  c #373746",
"1  c #433C46",
"2  c #444451",
"3  c #474652",
"4  c #686872",
"5  c #861F12",
"6  c #851C0F",
"7  c #BF0E15",
"8  c #BF1219",
"9  c #89271B",
"0  c #8A291E",
"q  c #862216",
"w  c #8E331A",
"e  c #96381D",
"r  c #B42C01",
"t  c #BC2D00",
"y  c #B53200",
"u  c #BC3901",
"i  c #BB3D0C",
"p  c #B83908",
"a  c #A42A14",
"s  c #A6341E",
"d  c #B63B15",
"f  c #B73F19",
"g  c #BD3D15",
"h  c #8B2C22",
"j  c #892722",
"k  c #8E342D",
"l  c #8D3328",
"z  c #933E26",
"x  c #933B2A",
"c  c #8E3631",
"v  c #8F3935",
"b  c #903631",
"n  c #913A34",
"m  c #913E3A",
"M  c #A73621",
"N  c #AC3A24",
"B  c #A83A26",
"V  c #C0141B",
"C  c #C00F16",
"Z  c #C82E00",
"A  c #C83602",
"S  c #C83906",
"D  c #C93C0A",
"F  c #C63804",
"G  c #C11D24",
"H  c #C12126",
"J  c #C2242A",
"K  c #C3292F",
"L  c #C42B33",
"P  c #C4353C",
"I  c #B9410C",
"U  c #BE4116",
"Y  c #B7411C",
"T  c #BE431B",
"R  c #B94B1A",
"E  c #98442B",
"W  c #94423D",
"Q  c #964734",
"!  c #99523D",
"~  c #AA412D",
"^  c #BB4621",
"/  c #BB4A24",
"(  c #BA4B28",
")  c #BB5325",
"_  c #BB522C",
"`  c #BA5B2E",
"'  c #B75022",
"]  c #AD4C3A",
"[  c #AA4635",
"{  c #BA5C31",
"}  c #BB5433",
"|  c #BC653B",
" . c #BC6339",
".. c #C7410C",
"X. c #CD4A0C",
"o. c #D15905",
"O. c #D15B0A",
"+. c #D05502",
"@. c #C7481A",
"#. c #C94A1B",
"$. c #C74515",
"%. c #CF571E",
"&. c #CF541A",
"*. c #D05102",
"=. c #D26314",
"-. c #D2671C",
";. c #C14B26",
":. c #C14C2B",
">. c #C24621",
",. c #CF5A22",
"<. c #C1522D",
"1. c #CC592E",
"2. c #CA552A",
"3. c #D05B24",
"4. c #C15533",
"5. c #CD5B32",
"6. c #C25A38",
"7. c #D26B21",
"8. c #D26029",
"9. c #C66438",
"0. c #D16A3C",
"q. c #D37A39",
"w. c #C53D43",
"e. c #974B44",
"r. c #964A45",
"t. c #9B5748",
"y. c #9C5B57",
"u. c #AD5445",
"i. c #AE5847",
"p. c #A75D52",
"a. c #A3685A",
"s. c #B36457",
"d. c #BE7454",
"f. c #B26F54",
"g. c #A36B65",
"h. c #A36966",
"j. c #A97769",
"k. c #AB7A75",
"l. c #B87D72",
"z. c #9F635A",
"x. c #C8464B",
"c. c #C64D53",
"v. c #C7555B",
"b. c #C7565A",
"n. c #C65F41",
"m. c #C46C4D",
"M. c #C56546",
"N. c #D26D42",
"B. c #C5724D",
"V. c #D17345",
"C. c #D2774B",
"Z. c #C56D51",
"A. c #C47453",
"S. c #CD7555",
"D. c #C4745A",
"F. c #C47B5C",
"G. c #CA7958",
"H. c #D47D55",
"J. c #C85C61",
"K. c #C86264",
"L. c #C9666A",
"P. c #C9696C",
"I. c #C7666B",
"U. c #C47C62",
"Y. c #C97D65",
"T. c #CA6E72",
"R. c #CA7475",
"E. c #CB7778",
"W. c #CB797A",
"Q. c #D07376",
"!. c #AD827B",
"~. c #B5847A",
"^. c #D58143",
"/. c #D5864B",
"(. c #CA805E",
"). c #D2835C",
"_. c #D89055",
"`. c #C48364",
"'. c #C5846B",
"]. c #CC856C",
"[. c #CB8769",
"{. c #D38965",
"}. c #D3916E",
"|. c #C58B72",
" X c #C98B74",
".X c #C98A77",
"XX c #CB947D",
"oX c #C69379",
"OX c #D29C7A",
"+X c #D29675",
"@X c #D28E71",
"#X c #D4A17A",
"$X c #B58C84",
"%X c #B78F89",
"&X c #B48984",
"*X c #BA9385",
"=X c #BA938A",
"-X c #B7948D",
";X c #BB9A93",
":X c #AD8885",
">X c #BDA39B",
",X c #BDA7A5",
"<X c #CB8685",
"1X c #C88D87",
"2X c #CB9582",
"3X c #C69A81",
"4X c #CD9B84",
"5X c #C2958C",
"6X c #C49A8B",
"7X c #CB9D8A",
"8X c #C59288",
"9X c #D29D84",
"0X c #D09D8A",
"qX c #C89A93",
"wX c #CE8F92",
"eX c #CCA18C",
"rX c #CDA087",
"tX c #D3A38B",
"yX c #D3A488",
"uX c #C5A195",
"iX c #CDA493",
"pX c #CDAC9D",
"aX c #C9A699",
"sX c #D1A691",
"dX c #D2AB96",
"fX c #D3B19A",
"gX c #CFB19D",
"hX c #CDADA3",
"jX c #C7A9A3",
"kX c #CEB2A5",
"lX c #CAB6AC",
"zX c #D2B7A7",
"xX c #CBBBB4",
"cX c #D1BEB4",
"vX c #D2B7B4",
"bX c #D2ADA9",
"nX c #D2C3B9",
"mX c #CFC2B7",
"MX c #D2D1C7",
/* pixels */
"n k 0 k.eX{ | | | | | | | | | d.{ iXF.y I i i i I i I I I I u eXD.Y / / / / / / / / / / ^ hXy.m W W W W W W W W W W r.lXn.4.4.6.",
"n l 9 k.iX` |  . . . . . . . .| ` iXF.r p p p u y p p p p p y iXD.d ^ ^ ^ Y Y ^ ^ ^ ^ ^ Y kXy.v m m m m n m m m m v r.lX6.<.<.6.",
"6X5X=XaXpX7XeXeXeXiXkXuXuXuXuXuX6XjXaX5X5X5X5X6XpX4X4X4X4X4X4XgXiX4XrXrX4XeXpX7X7X7X7X7X7XkXuX6X6X6X6XuXjXuXuXuXuXuXuXzXdXiXiXdX",
"_ / / ^ ^ / / / ^ ( lXr.m W W W W m W r.r.r.m y.zX=.=.=.=.=.=.=.=.=.=.=.O.^.hXT _ ( ( :.:./ ;.;.;.<.@.[.zXV.H.C.C.C.C.V.C.C.C.H.",
"^ f f Y Y f Y Y f ^ jXr.c n n n n n n n n n k r.gXO.o.O.O.O.o.O.O.O.O.O.*.q.iXg T T T T T T T T T T g F.dX0.N.N.N.N.N.V.N.N.N.V.",
"} _ _ _ ( _ _ _ _ } xXy.r.e.r.r.e.r.r.r.r.r.r.y.cX7.-.7.7.7.7.-.-.7.7.7.=./.kX_ 4.4.4.4.4.<.<.4.4.4.;.'.zXC.H.H.H.H.H.C.H.H.H.).",
"7X4X2XdXkX8X5X5X5X5XuX5X5X5X5X5X=XjXjX2X4X2X2X4XsX9X2X2X2X2XXXkXdXXX9X2X2X9XeX2X2X2X2X2X2XzXiX4X7X7X7XiXiX7X7X7X7X7X7XcXiX6X6XqX",
"#.$.S H.qXa B B B B M B B B B B a ~.@XZ D D D D S D D D D D Z 2XG.A D D D S S D D D D D A dXZ.g ;.>.^ ^ T ^ ^ ^ ^ ^ ^ kX] s M B ",
"#...F S.5Xa M M M M M M M M M M a l.].Z D S S S D S S S S D Z XXS.Z D S S S S S S S S S A tXm.g ^ T T ^ ^ @.T T T T T pX] s M B ",
"0.9.1.}.jX] i.i.i.i.] i.i.i.i.i.] =X9X;.5.1.5.1.2.1.1.1.1.1.#.iX X#.1.1.1.2.2.5.1.1.1.5.2.zX'.6.M.M.M.6.6.M.M.M.M.M.M.xXs.u.i.i.",
"1X<X<X<X1X<X<X<X<X1XcX4XXX2X2X2XXX2X2XXX2X2XXX7XnXtXsXtXsXsXtXsXsXtXsXsXtXkXlX~.$X$X$X$X$X*X%X$X$X$X~.jXzX+XOXOXOXOXOX#XOXOXOX#X",
"K G H G G G G G G L hX/ U T T T T T T T T T g 6.zX0.N.N.N.N.N.N.N.N.N.N.0.}.;X5 j 0 0 0 0 0 0 0 0 j 6 g.#X*.O.o.o.o.o.o.o.o.+.O.",
"K G H H H G H H G L hX/ U T T T T T T T T T g 6.zX0.N.N.N.N.N.N.N.N.N.N.0.}.;X5 h 0 0 0 0 j 0 0 0 h 6 g.OX*.O.o.o.o.o.o.o.o.+.O.",
"J.v.v.c.c.v.v.v.c.J.cXA.m.m.m.m.Z.m.m.A.A.A.m.`.nX}.}.}.}.}.+X{.{.}.+X+X{.sXlXt.y.y.y.y.y.t.y.y.y.a.t.%XfXq.^.^.^.^.^.q.^.^.^./.",
"OXOX+XfXcXoX3X3X3X3XoX3X3X3X3X3XoXlXhXR.W.W.W.W.E.W.W.W.W.W.R.vXiX'. X X X X X X X X X X XnX%Xk.!.k.!.k.k.k.k.k.k.k.!.mX|.`.`.'.",
"3.&.X.).eX' { ` ` ` ` ` ` ` ` { ' 3XT.7 G G G G G G G G G G C wXA.p T U U U U U U U U T i pXr.5 0 9 9 9 0 9 0 0 0 9 j jXI r y u ",
",.%.X.).eX' { ` ` ` { ` ` ` ` { ' 3XT.7 H G G G G G G G G G C wXA.p T U U T T U U U U T g pXr.q 0 0 0 0 0 9 9 9 0 9 j jXI r y u ",
"}.{.).sXcX'.|.|.|.|.'.|.|.|.|.|.'.zXqXJ.P.L.L.L.K.P.P.P.L.P.K.bXeXF.`.U.`.F.D.U.U.U.U.U.F.cX!.h.g.g.g.g.a.g.g.g.g.g.g.mX(.B.A.A.",
"T.I.P.L.K.P.L.P.L.T.nX'.U.U.U.U.U.D.F.U.U.U.F.|.nXP.P.P.P.P.P.K.L.P.P.P.K.<XcXY. X'. X X'.Y.].].].].Y.dXbXK.P.P.P.P.P.K.P.P.P.T.",
"K G G G G G G G G K hX^ d d d d d d d d d d p } hXG G G G G G G G G G H V c.iX@.;.;.;.;.;.;.;.;.;.;.g '.<X7 H G G G G G G G G J ",
"K G G G G G G G G K hX^ d d d d d d d d d d p } hXG G G G G G G G G G G V c.aX@.;.;.;.;.;.;.;.;.;.;.g '.<X7 G G G G G G G G G J ",
"W.E.E.E.R.E.E.E.E.W.nX|.'.|.|.|.|.|.'.|.|.|.'.XXcXE.E.E.E.E.E.E.E.E.E.E.R.wXcX X.X.X.X.XXX.X.XXXXXXX XpXbXT.W.E.E.W.W.E.E.W.E.W.",
"j.a.a.!.MX'.`.`.`.`.F.`.`.`.`.`.`.oXxXh.h.h.h.h.a.h.h.h.h.g.z.$XxXa.a.a.a.a.a.a.a.a.a.g.a.;XgXm.S.S.S.B.B.S.S.H.H.H.V.fXiXm.A.F.",
"E z z t.cX{ ` { { { { { { { { { ` B.jXk b c c c b b b b b b h a.uXw E z z z E z z z z E w j.OXD @.@.@.@.@.@.@.@.@.#.D XX'.i T ;.",
"Q z z t.nX .` { { { { { { { { { ` B.jXk c c c c c c c c c c h a.uXw E z z z z z z z z E w k.9XD #.@.#.#.@.#.@.@.@.#.D XX'.i T ;.",
"=X*X*X;XnXeX7X7X7X7XeX7X7X7X7X7X7XiXcX%X%X%X%X%X=X%X%X%X%X%X$X>XxX$X*X*X*X*X*X*X*X*X*X*X$XjXzXoX2X2X2X2X2X2X2X2X2X2XXXzXhXoX2X4X",
"S.m.Z.m.M.m.m.m.m.D.cX9.1.5.5.5.5.1.2.5.5.5.2.C.vXx.x.x.x.x.x.x.x.x.x.x.w.Q.jXW e.t.e.e.t.e.r.r.e.e.W :XfX0.V.V.V.V.V.0.V.V.V.C.",
"4.;.:.:.:.:.:.:.;.4.hX..S S S S S S S S S S A 2.aXG H H H H H H H H H H 8 b.;Xq h h j j 0 h h j 0 h 5 g.9XX.,.%.%.%.%.,.,.%.%.3.",
"4.:.:.:.:.:.:.:.:.6.zX$.S D D D D S S D D D A 1.hXH H H H J J H H H H K V b.>Xq l h h h h 0 h h h l q j.yXX.3.,.,.,.,.%.,.,.,.8.",
"iX7X7XiXiX6X6X6X6XqXlX4X2X2X2X2X2X7X4XXXXXXXXX7XlX1X1X1X1X1X1XqXqX8XwXwX1XqXlX%X=X=X=X=X=X;X=X=X=X=X*XaXzX4XrXtXrXrXrXdXrXrXrXeX",
"6.4.( .X;Xk W W W m n W W W W W k -X Xp R R R R U R R R R R I iX!.W e.r.r.r.r.e.e.e.e.e.r.lXA.( } } } _ ( _ _ _ _ _ } xXy.! ! t.",
":.^ g Y.%X5 h h h h h h h h h h 5 !.F.r u y y y u y y y y y r XXg.h n n n n n n n n n n k aX{ d Y f f Y Y Y Y Y Y f Y jX! z E Q ",
"4.( T ].-X0 c k k k l k k k k c 9 $X[.y I p I p p p p p p i y 7Xk.c r.W W W m W W W W W n jXM.Y / / / ^ ^ / / / / ^ ( lXt.Q Q ! ",
"iX7X7XaXpX5X6X5X5X6XjX5X5X5X5X5X8XaXiX2X8X8X2X7XpX4X4X4X4X4XOXfXiX6XeX6X6XaXjX=X;X;X;X;X=XjXqX6X6X6X5XaXpX4X7X7X7X7X7XkXqX6X6XuX",
"<./ ;./ ;.;.;.;.;.4.zXP K L L L L K K L L L K c.zX=.=.=.=.=.=.O.=.=.=.=.o./.aXM ~ ~ ~ ~ ~ B B ~ B ~ s ~.7XT <.;./ / ;./ ;.;.;.<.",
";.T T @.T T T T T ( hXL H H H H H H H H H J G w.fXo.O.O.O.O.O.O.O.O.O.O.*.C.qXa B M M M M B M M M B a l.XXi T T T T T T T T T ;.",
"9.4.4.<.<.4.4.4.4.9.vXw.P P P P P P P P P P L v.zX-.7.7.7.7.7.-.-.7.7.7.=._.jX~ ] ] ] ] ] [ [ [ [ ] B ~.eX/ 4.4.4.4.4.<.4.6.4.6.",
"wX1X1XaXkX7X7X7X7X7XaX7X7X7X7X7X7XhXhX9X0X0X0X0XdXyXyXyXyXyX9XzXuX*X*X*X*X;X;X=X=X=X=X=X=XlXpXiXiXiXiXdXfXsXsXsXsXsXdXcX4X2X2X9X",
"L H V P.iX>.4.:.:.:.:.:.:.:.:.4.>.2X+X&.,.,.,.,.%.,.,.,.,.,.&.sXz.q h h h h h h h h h h 9 jX{.0.V.V.V.V.N.V.V.V.V.V.V.zX#.S S ..",
"K H V K.7X@.:.:.:.:.:.:.;.;.;.:.@.XX}.X.,.%.%.%.,.%.%.%.%.,.X.tXa.q h 0 0 h h 0 j j j h 9 >X{.0.N.N.N.N.N.N.N.N.N.N.V.zX#.A S ..",
"c.x.w.<XhXM.Z.Z.Z.Z.M.m.m.m.m.Z.M.dXtX0.C.V.C.V.0.V.V.V.V.V.0.zXk.W e.e.e.e.W e.e.e.e.t.e.lXOX).{.{.{.).).{.{.{.{.{.{.nXM.2.1.5.",
"2XXXXX2X2XXXXXXXXX2XcX1X<X<X<X<X<X<X<X<X<X<X<XwXcXXXXXXXXXXXXX2X2XXXXX2XXXiXvX<X<X<X<X<X<X<X<X<X<X<X.XhXcX4X7X7X7X7X7XeX7X7X7XeX",
"Y d d d d d d d d / hXK G G G G G G G G G G V w.pXg T T T T T U T T T T i B.qXV H G G G G G G G G H 7 P.eX' { { { { { { { { `  .",
"^ d d f f d d d d / hXK G G G G G H H G G H V w.pXg T T T T T T T T T T i m.qXV H G G H G H G G G H 7 L.eX' { { { { { { { { `  .",
"D.m.Z.m.d.A.d.d.d.F.nXK.b.b.b.b.b.c.c.b.v.b.c.T.cXZ.A.A.A.A.A.m.m.A.A.A.m.oXbXc.b.v.v.v.v.c.v.b.b.J.c.wXlXF.'.`.`.`.`.F.`.`.`.[.",
"~.~.!.>XbXT.W.W.W.E.E.W.W.W.W.W.R.hXfX[.@X@X@X[.].@X@X@X@X@X[.zXiX'. X X X X X X X X X X XnXoXF.`.`.`.`.U.`.`.`.`.`.`.mX&X!.!.&X",
"E z w j.<X7 G G G G G G G G G G 7 W.[.A ....D ..............A 9XD.i T T T T T T T T T T g pX) r y y y y y y y y y y y pXr.l k n ",
"E z w j.<X7 H G G G G G G G G H 7 W.[.A ....................A 9XD.i T T T T T T T T T T g pX) r y y y y y y y y y y y pXr.l k n ",
"!.k.j.>XbXK.T.P.P.P.K.L.L.L.L.P.J.hXiXS.G.G.G.G.H.(.(.(.(.`.H.zXqXU.'.Y.'.Y.U.[.Y.Y.[.[.Y.nX[.B.A.A.A.B.B.A.A.A.A.A.A.mX!.k.k.k.",
"G.B.A.B.d.A.A.A.A.F.nX9XOXOXOXOXOX+X+XOXOXOX+XtXnXS.S.S.S.S.S.S.S.S.S.S.S.+XxXg.k.k.k.k.k.g.k.k.k.k.g.>XkXD.U.U.U.U.U.D.F.U.F.Y.",
"u y y y y y y y r p kXV.0.N.N.N.N.N.N.0.N.N.0.).dXA A A A A A S A A A A Z 0.;Xj b k k k k c k k k b j k.oXr d d d d d f d d d Y ",
"u y y y y y y y r p kXV.0.N.N.N.N.N.N.N.N.N.0.).dXA A A A A A A A A A A Z 0.;Xj c k k k k k k k k c j k.oXr d d d d d d d d d Y ",
"'.`.`.`.`.`.`.`.`.'.nXtXyXyXyXyXyX9X9XtXyXtX9XdXnX].].].].].].[.].].].].Y.0XxXk.&X&X&X&X&X!.!.&X&X&Xk.,XkX'.|.|.|.|.|.|.|.|.|..X",
").).C.tX,Xy.h.h.h.h.z.h.h.h.h.h.y.>X6Xi.s.s.s.s.i.s.s.s.s.s.i.lX#Xq.^.^.^.C.q.^.^.^.^.^.q.mX.XS.G.D.G.D.A.F.D.D.D.F.U.nXU.Z.Z.D.",
"3.%.X.{.%Xj n c k k b b b b b n j &Xl.a M s s M M s s s s M a 5X^.*.o.o.o.o.O.o.o.o.o.o.*.dXm.>.:.;.;.:.:.;.;.;.;.;.:.kX<.g T ;.",
"3.%.X.{.%Xj v c c c k c c c c v j &Xl.a M s s s s s s s s M a 6X/.*.o.o.o.o.o.o.o.o.o.o.*.fXm.>.:.;.;.;.;.;.;.;.;.;.:.kX<.g T ;.",
"yX9XOXgXlX%X=X=X=X=X-X%X%X%X%X=X$XlXjX~.8X8X8X8X8X8X8X8X8X8X~.lXdX+XOXOXOXOXOXOXOXOXOXOX+XcXiX2X4X4X4X7X7X4X4X4X4X2X7XcX7X2X2X4X",
"d.d.d.d.d.A.A.A.d.F.cX` ) ) ) ) ) R / ) ) ) R M.lXu.u.u.i.i.i.] u.u.u.i.] l.pXR ` ) ) ) ) R ' ) ) ` R |.>X! t.t.t.t.t.t.t.t.t.a.",
"9.9.9.9.9.9.9.9.9.M.zXi u u u u u u u u u u t ;.kXs N N N N N N N N N N a s.tXt u u u u u u u u u u t G.;Xe E E E E E E E E E Q ",
"> > > > > = > > % = 2 : % % % : ; ; ; ; ; ; % > 1 % % % % % % % % % % % % - 1 % ; ; ; ; ; ; ; : : : ; , 1 % = = = = = = = = = = ",
"O o o O   + O O $ + X O o # + O o o o o o o o O   o o o o o o o o o o o o o   o o o o o o o O         X X                   o o ",
"@ # 2 3 < 2 2 2 4 4 4 4 4 2 @ @ @ @ @ @ @ @ @ @ @ @ @ @ @ @ @ @ @ @ @ @ @ @ @ @ @ @ @ @ @ @ * < & & < & < * & & & < < < < < $ @ ",
"@ @ & < & & < & < 2 2 1 2 * . @ @ @ @ @ @ @ @ @ @ @ @ @ @ @ @ @ @ @ @ @ @ @ @ @ @ @ @ @ @ o * < < < < < < & < < & < < < & < @ @ ",
"@ @ . . o o o o . . . . . o @ @ @ @ @ @ @ @ @ @ @ @ @ @ @ @ @ @ @ @ @ @ @ @ @ @ @ @ @ @ @ @ o . . . . . . . . . . . . . o . @ @ "
};
