/* XPM */
static char *_54c3038ecf549378967f2940a8705eekArYqqTnPwn4hyaN[] = {
/* columns rows colors chars-per-pixel */
"64 64 238 2 ",
"   c #010101",
".  c #0A0A09",
"X  c #180706",
"o  c #1B1A1A",
"O  c #151300",
"+  c #340101",
"@  c #261D19",
"#  c #2C0F0F",
"$  c #23201A",
"%  c #252107",
"&  c #101025",
"*  c #1B2021",
"=  c #242322",
"-  c #292827",
";  c #3A2A29",
":  c #3B3C3C",
">  c #313131",
",  c #2E2E32",
"<  c #460302",
"1  c #540B0C",
"2  c #690000",
"3  c #630000",
"4  c #720808",
"5  c #452828",
"6  c #453832",
"7  c #503C36",
"8  c #683535",
"9  c #6A302F",
"0  c #5E463E",
"q  c #393E40",
"w  c #100E69",
"e  c #12126A",
"r  c #3B4548",
"t  c #424242",
"y  c #4C4B4B",
"u  c #494747",
"i  c #4E5858",
"p  c #5C5C5C",
"a  c #5B5C55",
"s  c #724C4A",
"d  c #78615B",
"f  c #74755E",
"g  c #6F6057",
"h  c #656565",
"j  c #6D6D6D",
"k  c #656666",
"l  c #6E7171",
"z  c #757576",
"x  c #7B7A7A",
"c  c #7C7962",
"v  c #515A66",
"b  c #940201",
"n  c #9C0101",
"m  c #9E0708",
"M  c #9C1415",
"N  c #A40000",
"B  c #AC0101",
"V  c #A2090C",
"C  c #B40101",
"Z  c #BB0000",
"A  c #B20B09",
"S  c #B41516",
"D  c #A9210B",
"F  c #AA1335",
"G  c #8D3937",
"H  c #CD0202",
"J  c #C10303",
"K  c #D20202",
"L  c #DB0201",
"P  c #D3010D",
"I  c #E70406",
"U  c #FD0303",
"Y  c #F70606",
"T  c #E50B1E",
"R  c #F1241D",
"E  c #D00529",
"W  c #FB720F",
"Q  c #C6403F",
"!  c #805953",
"~  c #9B5353",
"^  c #BC5C5C",
"/  c #B45148",
"(  c #826157",
")  c #AE6159",
"_  c #9F426A",
"`  c #A04B6F",
"'  c #987968",
"]  c #997369",
"[  c #BE6D6D",
"{  c #BC7571",
"}  c #A97777",
"|  c #C15D4B",
" . c #C36864",
".. c #C37272",
"X. c #C77777",
"o. c #D67A79",
"O. c #D77777",
"+. c #8F856E",
"@. c #93856C",
"#. c #9A8C68",
"$. c #8B8C7A",
"%. c #858576",
"&. c #9A8C73",
"*. c #9D927A",
"=. c #A2886F",
"-. c #AA9979",
";. c #AC897D",
":. c #ADA073",
">. c #EA8D7E",
",. c #E6EC47",
"<. c #E0E518",
"1. c #00038A",
"2. c #75628E",
"3. c #66679A",
"4. c #5F5AA1",
"5. c #635BAA",
"6. c #7372A1",
"7. c #6A64AA",
"8. c #1E00D0",
"9. c #2C1FD8",
"0. c #0101FD",
"q. c #010AFC",
"w. c #0A0AF0",
"e. c #0A13FE",
"r. c #1010F6",
"t. c #0024FD",
"y. c #032DFC",
"u. c #0531FE",
"i. c #3327F8",
"p. c #0745F9",
"a. c #1D53FA",
"s. c #1848F7",
"d. c #0E70FE",
"f. c #315AF6",
"g. c #477AF6",
"h. c #4966F3",
"j. c #6A65F6",
"k. c #746BFA",
"l. c #7675F8",
"z. c #7877CF",
"x. c #916B87",
"c. c #7F8484",
"v. c #3F84D1",
"b. c #189CF9",
"n. c #368CFD",
"m. c #3E97E0",
"M. c #17B9FF",
"N. c #28A8FE",
"B. c #28B3FF",
"V. c #36B9FE",
"C. c #3EA0E9",
"Z. c #4E8CD1",
"A. c #4ABAFB",
"S. c #5BB7FB",
"D. c #4FAFFA",
"F. c #62B8FC",
"G. c #4891F7",
"H. c #19C0FF",
"J. c #2BC2FF",
"K. c #37C4FF",
"L. c #58DBFF",
"P. c #53C8FC",
"I. c #68D3FD",
"U. c #73D7FE",
"Y. c #74D9FE",
"T. c #7ADBFE",
"R. c #78D4F9",
"E. c #69C3FC",
"W. c #7CE2FF",
"Q. c #868585",
"!. c #999998",
"~. c #979A87",
"^. c #B19086",
"/. c #B9B9B8",
"(. c #AEB1AE",
"). c #8C8DA1",
"_. c #CC918C",
"`. c #FF9493",
"'. c #FC9B97",
"]. c #F08F88",
"[. c #DBAB9C",
"{. c #FFA29E",
"}. c #E6A99D",
"|. c #D8A6A6",
" X c #DDB2AD",
".X c #FFA7A3",
"XX c #EAB7A6",
"oX c #FFB1AD",
"OX c #F6BCAC",
"+X c #E2B3B3",
"@X c #FFB8B7",
"#X c #E7ACAA",
"$X c #C9CABB",
"%X c #FEC7B5",
"&X c #FECBB8",
"*X c #FFD1BC",
"=X c #F5C2AF",
"-X c #888CF1",
";X c #A19DF6",
":X c #A6A3F5",
">X c #B5B8FB",
",X c #AEACEF",
"<X c #81CCE9",
"1X c #8ADEFC",
"2X c #82EBFF",
"3X c #83E3FE",
"4X c #96E2FD",
"5X c #A7E6FD",
"6X c #B9EAFA",
"7X c #CCCCCC",
"8X c #C3C3C3",
"9X c #D3D3D2",
"0X c #DADADA",
"qX c #D6D3CC",
"wX c #FFD8C4",
"eX c #EADAD9",
"rX c #E8CACA",
"tX c #EDE0DF",
"yX c #CCCCF8",
"uX c #D9D8F7",
"iX c #CACAEB",
"pX c #F3DFE5",
"aX c #D9F7FC",
"sX c #E6E6E6",
"dX c #ECECEC",
"fX c #E9E7E8",
"gX c #F2EDED",
"hX c #F9E6E6",
"jX c #F7F7ED",
"kX c #EEEDF4",
"lX c #EDF1F1",
"zX c #E6F8FC",
"xX c #F4F4F4",
"cX c #F8F6F6",
"vX c #FDFDF4",
"bX c #F6F6FA",
"nX c #F5FCFC",
"mX c #FCFCFC",
/* pixels */
"mXcXdXmXcXdXmXcXdXmXcXdXmXcXdXcXmXdXcXmXdXcXmXdXcXmXdXcXmXdXcXmXdXcXmXdXcXmXdXxXmXdXxXmXxXxXmXxXxXmXxXxXmXxXdXmXxXdXmXcXdXmXcXdX",
"mXcXfXmXcXfXmXcXfXmXcXfXmXcXfXmXmXfXcXmXfXcXmXfXcXmXfXcXmXfXcXmXfXcXmXdXcXmXdXxXmXdXxXmXdXxXmXdXdXmXxXdXmXxXdXmXxXdXmXxXdXmXcXfX",
"cXcXcXcXcXcXcXcXcXcXcXcXcXcXcXcXcXcXcXcXcXcXcXcXcXcXcXcXcXcXcXxXcXcXxXcXcXcXcXcXcXcXcXcXcXcXcXcXcXcXcXcXcXcXcXcXcXcXcXcXcXcXcXcX",
"fXcXmXfXcXmXdXxXmXdXxXmXdXxXmXlXlXmXxXdXmXxXdXmXxXdXmXcXdXmXcXlXmXmXdXmXcXfXmXcXfXmXcXfXmXcXfXmXmXfXcXmXfXcXmXfXcXmXfXcXmXfXcXmX",
"xXcXcXxXcXmXxXcXmXxXcXmXxXxXmXxXxXmXxXxXmXcXxXcXxXdXmXxXdXcXgXeXhXtXeXgXcXdXcXcXxXcXcXlXcXcXdXcXcXdXcXcXdXcXcXxXcXcXxXcXmXxXcXmX",
"mXcXdXmXcXdXmXcXfXmXcXfXmXcXfXmXcXdXcXmXdXcXmXdXmXmXfXmXmXnXrXm V V n ^ mXmXdXxXmXdXxXmXlXxXmXxXxXmXxXlXmXxXdXmXxXdXmXcXdXmXcXdX",
"mXcXfXmXcXfXmXcXdXmXcXfXmXcXfXcXcXfXcXmXfXcXmX0X9XsXfX0X0X0X|.B M D B / eXeXfXxXmXdXxXmXlXxXmXxXxXmXxXlXmXxXdXmXxXdXmXcXdXmXcXfX",
"xXcXcXxXcXcXxXcXcXxXcXcXxXcXcXxXxXcXcXxXcXxXmXx   = mX=   < J Y ] <.W L b m hXmXgXcXcXxXcXcXxXcXcXxXcXcXxXcXcXxXcXcXxXcXcXxXcXcX",
"fXcXmXfXcXmXdXxXmXdXxXmXdXxXmXdXlXmXxXdXmXdXmXz   y 7Xy . < H R ^.,.W P B C +XgXfXmXcXfXmXmXfXmXmXfXcXmXfXcXmXfXcXmXfXcXmXfXcXmX",
"xXcXcXxXcXcXxXcXcXxXcXcXcXcXcXcXcXcXcXcXcXxXmXp u mX  fXv 2 R ~.mXmX$X/ U U N  XmXxXcXxXcXcXxXcXcXxXcXcXxXcXcXxXcXcXxXcXcXxXcXcX",
"mXcXfXmXcXfXmXcXfXmXcXfXmXcXfXmXmXfXcXmXfXcXmXQ.p /.: dXi < S f /.7X~.G H Y C X.gXlXxXmXdXxXmXxXxXmXxXdXmXxXdXmXxXdXmXcXdXmXcXfX",
"mXcXdXmXcXdXmXcXdXmXcXdXmXcXdXcXmXdXcXcXdXcXcXmX(.. mXmXp               X U L N ..nXgXmXxXxXmXxXxXmXxXxXmXxXdXmXxXdXmXcXdXmXcXdX",
"dXcXmXxXcXmXlXxXmXxXxXmXxXxXmXxXxXmXxXxXmXxXxX0Xj o (.8X:               X B H B ..mXcXdXcXcXdXcXcXdXcXcXdXcXmXlXcXmXdXcXcXdXcXmX",
"fXcXmXfXcXmXdXxXmXdXxXmXdXxXmXdXlXmXxXdXmXdXmXj                             J C [ mXcXfXmXmXfXmXmXfXcXmXfXcXmXfXcXmXfXcXmXfXcXmX",
"cXcXcXcXcXcXcXcXcXcXcXcXcXcXcXcXcXcXcXcXcXcX/.x p p p h =   . .       .     4 b ..mXxXcXcXcXcXcXcXcXcXcXcXcXcXcXcXcXcXcXcXcXcXcX",
"mXcXfXmXcXfXmXcXfXmXcXfXmXcXfXmXmXfXcXmXsXmX= x mXmXmXmXp                     3 O.nXgXmXdXxXmXdXdXmXxXdXmXxXdXmXxXdXmXcXdXmXcXfX",
"mXcXlXmXcXdXcXcXdXcXcXdXcXcXdXcXcXdXcXcXdXmX> x sX!.xXmXy o z h s 8 g j p     2 O.nXgXmXxXxXmXxXxXmXxXxXmXxXxXmXcXxXmXcXdXmXcXdX",
"dXcXmXdXcXmXdXxXmXdXxXmXxXxXmXxXxXmXxXxXmXmX= !.8X  mXmXt h mXmX.X`.hXmXsX    2 O.mXcXdXcXcXdXcXcXdXcXcXdXcXmXdXcXmXdXcXmXdXcXmX",
"fXcXmXdXcXmXdXxXmXdXxXmXdXxXmXdXdXmXxXdXmXmX> u h . Q.mXy h xXx }..X^.(.dXg ! 1 ~ hXbXfXmXcXfXmXmXfXcXmXfXcXmXfXcXmXfXcXmXfXcXmX",
"cXcXxXcXcXxXcXcXxXcXcXxXcXcXxXcXcXxXcXcXxXmXt         sXy j 9X  [.wX7 : mX%X.X; 8 oXxXcXcXcXcXcXcXcXcXcXcXcXcXcXcXcXcXcXxXcXcXxX",
"mXcXfXmXcXfXmXcXfXmXcXfXmXcXfXmXmXfXcXmXsXmX: t !.Q.Q.mXu j 9X. XX*X0 i mXXXoX; 8 @XlXmXdXxXmXdXdXmXxXdXmXxXdXmXxXdXmXxXfXmXcXfX",
"cXcXxXcXcXxXcXcXxXcXcXxXcXcXxXcXcXxXcXcXdXmXo c.mXmXmXmX: k 0X  [.wX7 r mXXXwX6 9 @XxXcXxXxXcXxXxXmXxXxXmXcXxXmXcXxXcXcXxXcXcXxX",
"dXcXmXdXcXmXdXxXmXdXxXmXdXxXmXxXxXmXxXdXmXcX(.} ^ ^ ^  .] _.#X' XX%X^.^.@XXXd . 8 @XcXfXmXcXdXmXcXfXcXmXdXcXmXfXcXmXfXcXmXdXcXmX",
"dXcXmXdXcXmXdXxXmXdXxXmXdXxXmXxXxXmXxXdXmXdXmXo.b n n b >.%X`.*X=X=X&XoX`.%X.   s @XcXfXmXcXdXmXcXfXcXmXdXcXmXfXcXmXfXcXmXdXcXmX",
"mXcXxXcXcXxXcXcXxXcXcXxXcXcXxXcXcXxXcXcXxXcXmX..C I J B 9 6 s '.'.'.{.{ 5 7 ;.= 8 @XxXcXxXxXcXxXxXcXxXxXmXcXxXcXcXxXcXcXxXcXcXxX",
"mXcXfXmXcXfXmXcXfXmXcXfXmXcXfXmXmXfXcXmXfXcXmX[ Z U K C +   @ '.`.`.'.)     OX6 9 oXlXmXdXxXmXdXdXmXxXdXmXxXdXmXxXdXmXxXfXmXcXfX",
"cXcXcXcXcXcXcXcXxXcXcXxXcXcXxXcXcXxXcXcXxXxXmX..Z U H C +   X 5 5 5 5 @   . [.' ~.hXxXcXcXcXcXxXcXcXcXcXcXcXcXcXcXxXcXcXcXcXcXcX",
"fXcXmXdXcXmXdXxXmXdXxXmXdXxXmXdXdXmXxXdXmXgXnXX.Z U H C +                   [.^.(.mXcXfXmXcXfXmXmXfXmXmXfXcXmXfXcXmXfXcXmXfXcXmX",
"dXcXmXdXxXmXlXxXmXlXxXmXlXxXmXxXxXmXxXxXmXgXmXX.Z U K N  .g   .         o _.-.$XsXmXcXdXcXcXdXcXcXdXcXcXdXcXmXdXcXmXdXcXmXdXcXmX",
"mXcXdXmXcXdXmXcXdXmXcXdXcXcXdXcXcXdXcXcXdXcXmX[ Z U K N ].'             @ %X&.qXmXdXxXmXxXxXmXxXxXmXxXxXmXxXxXmXcXxXmXxXdXmXcXdX",
"mXcXfXmXcXfXmXcXfXmXcXfXmXcXfXmXmXfXcXmXfXcXmX[ Z U H H A / _.o.o.o.o.{ c -.qXgXmXdXxXmXdXxXmXdXdXmXxXdXmXxXdXmXxXdXmXcXdXmXcXfX",
"cXcXcXcXcXcXcXcXcXcXcXcXcXcXcXcXcXcXcXcXcXxXmXX.Z Y K K B Q {.`.`.`.`.].@.@.dXcXcXcXcXcXcXcXcXcXcXcXcXcXcXcXcXcXcXcXcXcXcXcXcXcX",
"fXcXmXfXcXmXdXxXmXdXxXmXdXxXmXdXdXmXxXdXmXxXdXmX_.C Y L / &.=.=.&.&.*.| I M hXmXfXmXcXfXmXcXfXmXmXfXcXmXfXcXmXfXcXmXfXcXmXfXcXmX",
"lXcXmXxXcXmXxXcXmXxXxXmXxXxXmXxXxXmXxXxXmXxXgXmX XN U L / $.$.$.@.' $.) I B rXcXdXcXcXdXcXcXdXcXcXdXcXcXdXcXcXlXcXmXdXcXmXlXcXmX",
"mXcXdXmXcXdXmXcXdXmXcXdXmXcXfXcXcXfXcXmXdXcXcXnX|.B U U U ` B.m.S L 2.B.Z.Y B +XmXdXxXmXxXxXmXxXxXmXxXxXmXxXlXmXxXdXmXcXdXmXcXdX",
"mXcXfXmXcXfXmXcXfXmXcXfXmXcXfXmXmXfXmXmXfXcXmXnX|.B Y U U ` M.C.S L 2.H.Z.Y n ^.nXdXxXmXlXxXmXxXxXmXxXdXmXxXdXmXxXdXmXcXdXmXcXdX",
"xXcXcXxXcXcXxXcXcXxXcXcXxXcXcXcXcXcXcXxXcXxXxXmX|.N K U U _ J.<XV N x.L.v.K X   z mXxXxXcXcXxXcXcXxXcXcXxXcXcXxXcXcXxXcXcXxXcXcX",
"fXcXmXfXcXmXdXxXmXdXxXmXdXxXmXlXlXmXxXdXmXxXfXmX+XS H E T x.K.<XG M ).L.Z.F ; o j fXcXfXmXmXfXmXmXfXcXmXfXcXmXfXcXmXfXcXmXfXcXmX",
"xXcXcXxXcXcXxXcXcXxXcXcXxXcXcXcXcXcXcXxXcXcXxXcXnXrXL 8.d.P.T.T.T.T.T.T.I.N.zXmXx , mXxXcXcXxXcXcXxXcXcXxXcXcXxXcXcXxXcXcXxXcXcX",
"mXcXdXmXcXfXmXcXfXmXcXfXmXcXfXcXcXfXcXmXfXcXmXfXmXpXF 9.n.R.4XY.T.T.Y.1X1XS.>XmXx - mXmXdXxXmXxXxXmXxXlXmXxXdXmXxXdXmXcXdXmXcXfX",
"mXcXdXmXcXdXmXcXdXmXcXdXmXcXfXcXmXdXcXmXfXcXmXdXmXuXq.F.aXmXaXY.T.T.U.5XmXmXw.>X$.- mXmXdXxXmXxXxXmXxXxXmXxXdXmXxXdXmXcXdXmXcXdX",
"dXcXmXlXcXmXxXcXmXxXxXmXxXxXmXxXxXmXxXxXmXxXxXmXvXyXq.S.aXmXaXY.T.T.U.5XmXmXr.>X$., mXdXcXcXlXcXcXdXcXcXdXcXcXdXcXcXdXcXcXxXcXmX",
"fXcXmXfXcXmXdXxXmXdXxXmXdXxXmXdXdXmXxXdXmXxXdXmXvXiXq.S.aXmXzXY.T.T.U.5XmXmXr.yX$.* mXsXmXmXfXmXmXfXmXmXfXcXmXfXcXmXfXcXmXfXcXmX",
"cXcXcXcXcXcXcXcXcXcXcXcXcXcXcXcXcXcXcXcXcXcXcXcXvXyXq.F.6XaX6XY.T.T.U.4XaX6Xe.z.%.z mXxXcXcXcXcXcXcXcXcXcXcXcXcXcXcXcXcXcXcXcXcX",
"mXcXfXmXcXfXmXcXfXmXcXfXmXmXfXmXmXfXcXmXfXcXmXfXmXkX0.F.W.U.Y.T.T.T.T.T.I.b.e.& f mXdXmXdXxXmXdXxXmXxXdXmXxXdXmXxXdXmXcXdXmXcXfX",
"mXcXdXmXcXdXmXcXdXcXcXdXcXcXdXcXcXdXcXcXdXcXcXgXuX-Xs.E.W.T.T.Y.Y.Y.U.T.U.A.a.1.6.mXlXmXxXxXmXxXxXmXxXxXmXxXxXmXcXlXmXcXdXmXcXdX",
"dXcXmXdXcXmXlXxXmXxXxXmXxXxXmXxXxXmXxXxXmXxXdXmX;X0.V.U.T.T.3X2X2X2X2X3X1XT.K.t.j.mXbXdXcXcXdXcXcXdXcXcXdXcXmXdXcXmXdXcXmXdXcXmX",
"fXcXmXdXcXmXdXxXmXdXxXmXdXxXmXdXdXmXxXdXmXxXdXmX:Xq.N.I.T.I.D.g.g.g.g.G.P.U.V.t.j.mXbXfXmXcXfXmXmXfXcXmXfXcXmXfXcXmXfXcXmXfXcXmX",
"cXcXcXcXcXcXcXcXcXcXcXcXcXcXcXcXcXcXcXcXcXcXcXvX:Xq.N.U.3XL.d.0.0.0.0.y.V.T.V.t.k.vXxXcXcXcXcXcXcXcXcXcXcXcXcXcXcXcXcXcXxXcXcXcX",
"mXcXfXmXcXfXmXcXfXmXcXfXmXcXfXmXmXfXcXmXfXcXmXjX:Xq.N.A.P.n.f.-Xl.-Xi.u.V.A.V.t.k.vXdXmXdXxXmXdXlXmXxXdXmXxXdXmXxXdXmXxXfXmXcXfX",
"mXcXxXcXcXlXcXcXxXcXcXxXcXcXxXcXcXxXcXcXlXcXbXvX:Xq.B.B.J.p.i.mXvXvXk.y.K.B.K.t.k.vXxXcXxXxXcXxXxXmXxXxXcXxXxXcXcXxXcXcXxXcXcXxX",
"dXcXmXdXcXmXdXxXmXdXxXmXdXxXmXlXxXmXxXdXmXxXdXmX:X0.s.s.p.h.,XdXbXvXj.q.a.s.a.q.j.mXbXfXmXcXfXcXmXdXcXmXfXcXmXfXcXmXdXcXmXdXcXmX",
"fXcXmXdXcXmXdXxXmXdXxXmXdXxXmXxXxXmXxXxXmXxXdXmX>X0.0.0.0.l.vXfXmXvXj.0.0.0.0.0.k.mXbXfXmXcXfXcXcXfXcXmXfXcXmXdXcXmXdXcXmXdXcXmX",
"cXcXxXcXcXxXcXcXxXcXcXxXcXcXxXcXcXxXcXcXxXcXmX!.v 5.4.7.e 3.mXbXdXmX3.w 7.4.7.w 6.mXlXcXxXxXmXxXxXcXxXxXcXcXxXmXcXxXcXcXxXcXcXxX",
"mXcXfXmXcXfXmXcXfXmXcXfXmXcXfXmXmXfXcXmXfXcXmXp . :.#.-.% a mXmXsXmXk % -.#.-.O j mXdXmXdXxXmXdXdXmXxXdXmXxXdXmXxXdXmXcXfXmXcXfX",
"cXcXxXcXcXxXcXcXxXcXcXxXcXcXxXcXcXxXcXcXxXmXl d ^.+.@.*.@ h mXcXdXmXk @ *.@.+.;.d l mXcXcXcXcXcXcXcXcXcXcXcXcXcXcXxXcXcXxXcXcXxX",
"fXcXmXdXxXmXdXxXmXdXxXmXdXxXmXlXdXmXxXdXmXmX* ( *X+.&.-.@ k mXfXmXmXp $ -.&.@.*X! - mXfXmXcXfXmXmXfXmXmXfXcXmXfXcXmXfXcXmXfXcXmX",
"dXcXmXdXcXmXdXxXmXlXxXmXxXxXmXxXxXmXxXxXmXmX: X ; $ $ -   j mXfXcXmXh   - $ $ ; X t mXfXcXcXdXcXcXdXcXmXdXcXmXdXcXmXdXcXmXdXcXmX",
"mXcXlXmXcXdXcXcXdXcXcXdXcXcXdXcXcXdXcXcXdXmXt             h mXcXdXmXj             : mXmXxXxXmXxXxXmXxXxXmXxXxXmXcXxXmXcXdXmXcXdX",
"mXcXfXmXcXfXmXcXfXmXcXfXmXcXfXmXmXfXcXmXfXmX0X/.7X9X8X7X7X9XcXmXfXcXsX/.7X9X8X7X9X7XxXmXdXxXmXdXdXmXxXdXmXxXdXmXxXdXmXcXfXmXcXfX",
"cXcXcXcXcXcXcXcXcXcXcXcXcXcXcXcXcXcXcXcXcXcXmXmXmXmXmXmXmXcXcXcXcXcXcXmXmXmXmXmXmXmXcXcXcXcXcXcXcXcXcXcXcXcXcXcXcXcXcXcXcXcXcXcX",
"fXcXmXfXcXmXdXxXmXdXxXmXdXxXmXdXdXmXxXdXmXxXfXmXxXfXmXxXfXmXcXfXmXcXfXmXcXsXmXcXsXmXcXfXmXcXfXmXmXfXcXmXfXcXmXfXcXmXfXcXmXfXcXmX",
"dXcXmXxXcXmXxXcXmXxXxXmXxXxXmXxXxXmXxXxXmXxXxXmXcXxXmXcXxXmXcXxXmXcXlXcXcXlXmXcXlXcXcXdXcXcXlXcXcXdXcXcXdXcXcXlXcXcXdXcXmXlXcXmX",
"mXcXdXmXcXdXmXcXdXmXcXdXmXcXdXcXcXdXcXmXdXcXmXdXcXmXdXcXmXdXcXmXdXcXmXdXcXmXdXcXmXdXxXmXxXxXmXxXxXmXxXxXmXxXdXmXxXdXmXcXdXmXcXdX"
};
