/* XPM */
static char *bff87ad9ddcd4bb8d6a705f515fe9f64PWpnq9lYKduKdXUQ[] = {
/* columns rows colors chars-per-pixel */
"64 64 209 2 ",
"   c #010101",
".  c #0B0100",
"X  c #030409",
"o  c #00080F",
"O  c gray3",
"+  c #090804",
"@  c #130000",
"#  c #1A0100",
"$  c #18000B",
"%  c #000713",
"&  c #00051D",
"*  c #050516",
"=  c #150012",
"-  c #220000",
";  c #2B0000",
":  c #320000",
">  c #3D0000",
",  c #000524",
"<  c #000924",
"1  c #00042A",
"2  c #000A2B",
"3  c #000C30",
"4  c #00103A",
"5  c #460000",
"6  c #490000",
"7  c #550000",
"8  c #580000",
"9  c #740000",
"0  c #001046",
"q  c #000D53",
"w  c #001963",
"e  c #001470",
"r  c #7D3243",
"t  c #800000",
"y  c #BB180F",
"u  c #B91817",
"i  c #AE211A",
"p  c #B22218",
"a  c #AA1F22",
"s  c #BA1626",
"d  c #AF1632",
"f  c #9D3326",
"g  c #8E2E39",
"h  c #8E3233",
"j  c #95283B",
"k  c #AB2B2C",
"l  c #B52323",
"z  c #B42339",
"x  c #DA0A08",
"c  c #CC100F",
"v  c #D2120F",
"b  c #C51A1A",
"n  c #C71714",
"m  c #D91510",
"M  c #D11813",
"N  c #EB060A",
"B  c #F90403",
"V  c #F4080A",
"C  c #E7100B",
"Z  c #E10E17",
"A  c #CC1C27",
"S  c #C42529",
"D  c #397599",
"F  c #3577B1",
"G  c #716D8E",
"H  c #7E7B8C",
"J  c #4679A5",
"K  c #557BB9",
"L  c #6679BE",
"P  c #1E79C8",
"I  c #1C79D2",
"U  c #1979D5",
"Y  c #247BCC",
"T  c #2B79C3",
"R  c #247FD8",
"E  c #3679C7",
"W  c #0F7EE3",
"Q  c #037AEF",
"!  c #0C7CE8",
"~  c #197EE7",
"^  c #0A7FF2",
"/  c #037EFB",
"(  c #077AF8",
")  c #4E7CD2",
"_  c #567ED6",
"`  c #4B84B1",
"'  c #1C84D9",
"]  c #3684C5",
"[  c #2B87D9",
"{  c #358DD7",
"}  c #0B83EB",
"|  c #1683EC",
" . c #0283FD",
".. c #0888FF",
"X. c #0C80FB",
"o. c #1084F4",
"O. c #1887F2",
"+. c #2F8EE2",
"@. c #FCC69D",
"#. c #FAC79D",
"$. c #DFD0BD",
"%. c #EDCAAA",
"&. c #FFC6A2",
"*. c #F4CCA6",
"=. c #FECCA5",
"-. c #F5CDAC",
";. c #FECCAB",
":. c #F5D0AB",
">. c #FCD1AB",
",. c #FFD3A7",
"<. c #EDCDB1",
"1. c #E4CFB6",
"2. c #F4CEB7",
"3. c #FACEB2",
"4. c #F2CEBB",
"5. c #E5D3B6",
"6. c #ECD1B5",
"7. c #E4D3BC",
"8. c #EBD3BC",
"9. c #F4D2B3",
"0. c #FDD3B4",
"q. c #F3D3B9",
"w. c #FDD5BB",
"e. c #DED2C9",
"r. c #DFD3C5",
"t. c #DDDAD6",
"y. c #DDDDDD",
"u. c #E8CCC0",
"i. c #E3D6C4",
"p. c #E3DACE",
"a. c #E7D6CA",
"s. c #F1D4C1",
"d. c #E3DCD6",
"f. c #FEE6C5",
"g. c #FFE9C5",
"h. c #FFEDCB",
"j. c #E4E4DE",
"k. c #EAE3DD",
"l. c #EDEADE",
"z. c #E7E6D5",
"x. c #FFECD3",
"c. c #F4ECDC",
"v. c #FDECDB",
"b. c #F6E9D6",
"n. c #FEF0DD",
"m. c #FFF3D6",
"M. c #E9DFE2",
"N. c #F6DDE1",
"B. c #DEE6E3",
"V. c #DFEBE4",
"C. c #DCE6EC",
"Z. c #DEECF4",
"A. c #D9E9F8",
"S. c #DEFBFF",
"D. c #D5F9FF",
"F. c #E5E5E5",
"G. c #EAE5E3",
"H. c #E4E9E4",
"J. c #EAE9E4",
"K. c #E6E5EA",
"L. c #EAE4EA",
"P. c #E4E9EB",
"I. c #E9E9E9",
"U. c #FFE4E6",
"Y. c #F3EDE3",
"T. c #FEEEE5",
"R. c #FFEDEB",
"E. c #F1E6E6",
"W. c #FCF3E4",
"Q. c #F3F1EC",
"!. c #FEF3EC",
"~. c #FFFEEE",
"^. c #F6F0E4",
"/. c #E9E5F0",
"(. c #E7EAF2",
"). c #E4FFFF",
"_. c #EBFEFF",
"`. c #E8F6F6",
"'. c #F5F5F5",
"]. c #F3F4F2",
"[. c #FEF5F4",
"{. c #F6FCF6",
"}. c #FFFDF3",
"|. c #F9FAF5",
" X c #FDFDF5",
".X c #FFF6FB",
"XX c #F5FEFD",
"oX c #F8F8F8",
"OX c #FBFBFB",
"+X c gray98",
"@X c #F9FAFA",
"#X c #FEFAFA",
"$X c #FFFFFB",
"%X c #FFFFFB",
"&X c #FFFDF9",
"*X c #F9FAFE",
"=X c #F9FFFF",
"-X c #FBFFFF",
";X c #F8FCFF",
":X c gray99",
">X c #FDFDFD",
",X c #FFFFFD",
"<X c #FFFDFF",
"1X c #FEFEFE",
"2X c white",
"3X c #FFFEFF",
"4X c #FDFEFE",
"5X c #FEFEFE",
"6X c #F7F6FB",
/* pixels */
"2X2XF.F.2X2XF.F.2X2XF.F.2X2XF.F.2X2XF.F.2X2XF.F.2X2XF.F.2X2XF.F.2X2XF.F.2X2XF.F.2X2XF.F.2X2XF.F.2X2XF.F.2X2XF.F.2X2XF.F.2X2XF.F.",
"2X2XF.F.2X2XF.F.2X2XF.F.2X2XF.F.2X2XF.F.2X2XF.F.2X2XF.F.2X2XF.F.2X2XF.F.2X2XF.F.2X2XF.F.2X2XF.F.2X2XF.F.2X2XF.F.2X2XF.F.2X2XF.F.",
"I.F.2X2XF.F.2X2XI.F.2X2XF.F.2X2XI.F.2X2XF.F.2X2XI.F.2X2XF.F.2X2XI.F.2X2XF.F.2X2XI.F.2X2XF.F.2X2XI.F.2X2XF.F.2X2XI.F.2X2XF.F.2X2X",
"F.F.2X2XF.F.2X2XF.F.2X2XF.F.2X2XF.F.2X2XF.F.2X2XF.F.2X2XF.F.2X2XF.F.2X2XF.F.2X2XF.F.2X2XF.F.2X2XF.F.2X2XF.F.2X2XF.F.2X2XF.F.2X2X",
"2X2XF.F.2X2XF.F.2X2XF.F.2X2XF.F.2X2XF.F.2X2XF.F.2X2XF.F.2X2XF.F.2X2XF.F.2X2XF.F.2X2XF.F.2X2XF.F.2X2XF.F.2X2XF.F.2X2XF.F.2X2XF.F.",
"2X2XF.F.2X2XF.I.2X2XF.F.2X2XF.I.2X2XF.F.2X2XF.I.2X2XF.F.2X2XF.I.2X2XF.F.2X2XF.I.2X2XF.F.2X2XF.I.2X2XF.F.2X2XF.I.2X2XF.F.2X2XF.I.",
"F.F.2X2XF.F.2X2XF.F.2X2XF.F.2X2XF.F.2X2XF.F.2X2XF.F.2X2XF.F.2X2XF.F.2X2XF.F.2X2XF.F.2X2XF.F.2X2XF.F.2X2XF.F.2X2XF.F.2X2XF.F.2X2X",
"F.F.2X2XF.F.2X2XF.F.2X2XF.F.2X2XF.F.2X2XF.F.2X2XF.F.2X2XF.F.2X2XF.F.2X2XF.F.2X2XF.F.2X2XF.F.2X2XF.F.2X2XF.F.2X2XF.F.2X2XF.F.2X2X",
"2X2XF.F.2X2XF.F.2X2XF.F.2X2XF.I.2X2XF.F.2X2XF.F.2X2XI.F.2X2XF.F.2X2XF.F.2X2XF.F.2X2XF.F.2X2XF.F.2X+XF.I.].2XI.F.2X2XF.F.2X2XF.F.",
"2X2XF.F.2X2XF.F.2X2XI.I.2X2XF.F.2X2XF.I.+X2XF.F.2X2X+X+X2X2X+X+X2X2XF.F.2X2XF.I.2X2XF.F.2X2X2X+X2X2X+XF.2X2Xy.I.2X2XF.F.2X2XF.F.",
"I.F.2X2XF.F.2X2XF.F.+X2XF.F.2X2XI.F.2X2XF.+X                            I.F.2X].F.F.2XX                   F.2X2XI.F.2X2XF.F.2X2X",
"F.F.2X2XF.F.2X2XI.I.2X2XF.I.].2XI.y.2X+X  X                                 2X2XF.%X      X         2X2XF.F.2X2XF.F.2X2XF.F.2X2X",
"2X2XF.F.2X2XF.F.+X2XF.I.2X2XI.F.2X2X          X                     X   O     F.2X              +X2XF.F.2X2XI.F.2X2XF.F.2X2XF.F.",
"2X2XF.F.2X2XF.I.2X2XF.F.2X2XF.I.2X].X                                                     X +XF.2X2X].F.2X2XF.F.2X2XF.F.2X2XF.I.",
"F.F.2X2XF.F.2X2XI.F.2X2X  F.2X2X              X                             O                     I.].2XI.F.2X2XF.F.2X2XF.F.2X2X",
"F.F.2X2XF.F.2X2XF.I.2X    I.2X                                      X                                 2XI.F.2X2XF.F.2X2XF.F.2X2X",
"2X2XF.F.2X2XF.F.2X2X        F.                                                    +                     2X2XF.F.2X2XF.F.2X2XF.F.",
"2X2XF.F.2X2XF.F.+X:X    +   +                                                   +   +             +X+X    2XI.F.2X2XF.F.2X2XF.F.",
"I.F.2X2XF.F.2X2XI.F.2X2X      X                                                       X     +       X 2X2X+X2X2XI.F.2X2XF.F.2X2X",
"F.F.2X2XF.F.2X2XF.I.2X2XF.  X                                                   X             +   X     F.F.2X+XF.F.2X2XF.F.2X2X",
"2X2XF.F.2X2XF.F.2X2X                                                                                X   2X2XI.F.2X2XF.F.2X2XF.F.",
"2X2XF.F.2X2XF.I.2X2XI.F.X     X                                                             .             2XF.F.2X2XF.F.2X2XF.I.",
"F.F.2X2XF.F.2X2XI.F.2X2XF.X                                                         l.  +             X   I.+X2XF.F.2X2XF.F.2X2X",
"F.F.2X2XF.F.2X2XF.F.2X2X                                                            ^..         y.          2X2XF.F.2X2XF.F.2X2X",
"2X2XF.F.2X2XF.F.2X2XF.I.                X   +               Y.. . c..     X       . b.. p.        2X        F.I.2X2XF.F.2X2XF.F.",
"2X2XF.F.2X2XF.F.2X2XF.I.    X X   X       +         . .   .   . n..   Q.        . . n.. e.+ |.    2X  X     ].F.2X2XF.F.2X2XF.F.",
"I.F.2X2XF.F.2X2XF.F.2X2X  X                       [.    Y.Y.d.^.. . e.      '.. . . x.. .   %X+X  F.        +X2XI.F.2X2XF.F.2X2X",
"F.F.2X2XF.F.2X2XF.I.2X2X    O     O O           t.G.          . . e..       Q.  . i.. $..   2X2X  I.+X      2X2XF.F.2X2XF.F.2X2X",
"2X2XF.F.2X2XF.F.2X2XF.I.  X                   t.  .       .       .   .     . . . i.. p.    6XF.  2XF.      F.F.2X2XF.F.2X2XF.F.",
"2X2XF.F.2X2XF.I.2X2XF.F.                    Q.    %X%X%X%X|.%X%X          i.. . v.c.^.J.      I.  2XF.    2XI.F.2X2XF.F.2X2XF.I.",
"F.F.2X2XF.F.2X2XF.F.2X2XF.  X       X           2X  :X2X2X2X  OX    2X  i.. @ . }.}.%XX       %XJ.F.2X  2XF.2X2XF.F.2X2XF.F.2X2X",
"F.F.2X2XF.F.2X2XF.I.2X2XI.                    2X2X  2X2X  2X2X  :X:XOX. r.i.. OX%X  2X  :X  %X%XF.I.+X2XF.F.2X2XF.F.2X2XF.F.2X2X",
"2X2XF.F.2X2XF.F.2X2XF.F.2X2XX         X       %X%X%X2X+X+XX 2X2X%X%X2X        2X  2X    :X  {.J.2X2XF.F.2X2XF.F.2X2XF.F.2X2XF.F.",
"2X2XF.F.2X2XF.F.2X2XF.F.2X2X      . . . .     |.  2X+X2X2X  2X2X2X|.2X  . .       O     :X=X  F.2X2XF.F.2X2XF.F.2X2XF.F.2X2XF.F.",
"I.F.2X2XF.F.2X2XF.F.2X2XF.F.X   . s.q.<.x.@ . 2X:X    OX%X  2X:X2X2X2X  8.8.}.  %X#X. OX  2X+X2XI.F.2X2XF.F.2X2XI.F.2X2XF.F.2X2X",
"F.F.2X2XF.F.2X2XI.F.2X2XF.F.2X  8.9.*.>.-.8.. %X2X  2X%X  %X@X:X2X2X[.@ 9.<.~.      . #X  2X2X2XF.F.2X2XF.F.2X2XF.F.2X2XF.F.2X2X",
"2X2XF.F.2X2XF.F.2X2XI.F.2X2Xj.  6.-.# - <.s.a.. .X2X    %X X{.2X2XOX@ q.-.9.~.  :X    %X  %X%XF.2X2XF.F.2X2XF.F.2X2XF.F.2X2XF.F.",
"2X2XF.F.2X2XF.I.2X+XF.F.2X2XI.. q.f.h.6.@ v.s.@ [.!. X%X X@X:X2X2X[.# 3.-.9.W.  X =X#X  #X%X+XI.2X2XF.F.2X2XF.I.2X2XF.F.2X2XF.I.",
"F.F.2X2XF.F.2X2XI.F.2X+XF.F.+X. 6.h.f.8.@ @ 4.4.v.@ }.%X:X=X:X2X  @ w.;.-.0.@  X2X:X%X}.%X  :X=XI.F.2X2XF.F.2X2XF.F.2X2XF.F.2X2X",
"F.F.2X2XF.F.2X2XF.F.2X2XF.F.2X  @ 1.@ 7.7.@ 0.-.-.q..       . . i.6.*.=.;.3.s.a.2X:X@X%X    :X:XF.F.2X2XF.F.2X2XF.F.2X2XF.F.2X2X",
"2X2XF.F.2X2XF.F.2X2XF.F.2X2XF.G.. e.. 7.5.h.g.=.=.0.-.<.q.q.2.2.>.>.=.&.=.3.u..   2X2XX    XH.H.2X2XF.F.2X2XF.F.2X2XF.F.2X2XF.F.",
"2X2XF.F.2X2XF.F.2X2XF.F.2X2XF.F.    p.. h.h.%.=.,.=.;.=.;.;.;.;.=.=.@.,.&.;.# !..       %X%Xj.F.2X2XF.F.2X2XF.F.2X2XF.F.2X2XF.F.",
"I.F.2X2XF.F.2X2XI.F.2X2XF.F.2X%XM. X. 7.h.x.# -.:.*.#.,.=.=.=.;.;.@.=.@.=.=.g.f.7.W.  +XI.j.2X2XI.F.2X2XF.F.2X2XI.F.2X2XF.F.2X2X",
"F.F.2X2XF.F.2X2XF.F.2X2XF.F.2X2XJ.k.. . . 1.7.@ 6.9.0.=.=.&.;.&.;.;.&.,.-.:.*.9.6.. %X2XI.F.OX2XF.F.2X2XF.F.2X2XF.F.2X2XF.F.2X2X",
"2X2XF.F.2X2XF.F.2X2XF.F.2X2XF.F. X2X        . . @ 5.9.%.>.;.;.;.;.;.;.>.6.8.6.6..   J.F.OX2XG.G.2X2XF.F.2X2XF.F.2X2XF.F.2X2XF.F.",
"2X2XF.F.2X2XF.I.2X2XF.F.2X2XF.I.2X    X   2X|.  c.. n.x.q.%.9.-.-.0.-.%.@ c.. @ .  XF.(.2XOXG.F.2X2XF.F.2X2XF.I.2X2XF.F.2X2XF.I.",
"F.F.2X2XF.F.2X2XF.F.2X2XF.F.2X2XF.F.2X2XI.F.        !.T.. . m.5.<.q.8.# .   2X%Xk.G.:X:XF.I.:X2XK.F.2X2XF.F.2X2XF.F.2X2XF.F.2X2X",
"F.F.2X2XF.G.2X2XF.F.2X2XK.F.2X:XC.% & , , , & % o   - : : ; . . . # - ; ; ; .X2XF.F.2X:XF.F.2X2XF.F.2X2XF.F.2X2XF.F.2X2XF.F.2X2X",
"2X2XF.F.%X%XG.G.2X|.Q.L.+X:XP.Z.% 2 E I [ Y q J < @ a v m p -   . - 7 u n i T.H.2X2XF.J.:X2XP.K.2X2XF.F.2X2XF.F.2X2XF.F.2X2XF.F.",
"2X2XI.F.2X%XG.F.:X2XF.d.2X:XA.S.3 ] ~ ( Q o.W Y F * A B B c > @ # : u m C b T.F.2X2XJ.j.%X2XK.L.2X2XF.F.2X2XF.F.2X2XF.F.2X2XF.F.",
"P.K.:X:XK.F.2X:XZ.C.+X%XY.'., 0 +.! ( X.O.W o.^ W L s B N t 7 h g 8 9 M u 7 [.2XP.K.2X XG.G.2X:XL.F.2X2XF.F.2X2XI.F.2X2XF.F.2X2X",
"K.F.:X:XF.F.2X:XC.Z.2X%Xk.XX` P o./ ..^ e U Q  . ._ d V Z s 6 r r 6 b M l 5 .X:XK.F.2X%Xk.k.2X2XK.F.2X2XF.F.2X2XF.F.2X2XF.F.2X2X",
"2X2XF.F.2X2Xk.G.:X:XF.L.:X< { } (  . .} w Y |  . .) z N x z = 1 1 $ b x p > N.K.%X%XF.F.2X2XF.K.2X2XF.F.2X2XF.F.2X2XF.F.2X2XF.F.",
"2X2XF.F.2X2Xk.G.2X:XI.F.X & ] U I R U { 4 D T I ' K j n S 6 G J D H k y f ; E.P.%X%XF.K.2X2XF.I.2X2XF.F.2X2XF.I.2X2XF.F.2X2XF.I.",
"K.F.%X%XF.F.%X2XP.C.:X2X'.{.).).S.S.).)._.)._.).D._.[.R.U.U.2XXX`.Q.R.R.!.!.2X2XF.L.2X2XF.H.@X XH.F.2X2XF.F.2X2XF.F.2X2XF.F.2X2X",
"F.F.%X%XK.F.2X2XC.P.=X2XG.J.2X%Xz.z.%X2Xz.j.2X2XJ.j.%X%Xk.G.2X%Xk.k.2X2XF.F.%XOXL.L.2X2XK.F.@X XF.F.2X2XF.F.2X2XF.F.2X2XF.F.2X2X",
"2X2XF.F.2X2XK.F.2X2XK.P.:X:XK.G.~.}.K./.2X2XF.F.:X:XF.J. X@XF.F.2X2XL.L. X Xj.G.:X:XL.I.:X:XF.j.2X2XF.F.2X2XF.F.2X2XF.F.2X2XF.F.",
"2X2XF.F.2X2XK.F.%X%XF.F.:X:XF.G.}.%X/.K.2X2XH.F.:X:XK.B.XXXXF.F.2X2X/.F. X XF.F.:X:XL.B.=X=XF.G.2X2XF.F.2X2XF.F.2X2XF.F.2X2XF.F.",
"I.F.2X2XG.G.%X%XJ.F.2X2XP.H.%X XG.F.2X:XF.F.%X XJ.F.:X:XV.H.2X:XL.L.2X2XH.H.2X:XL.L.2X2XH.H.2XOXL.F.2X2XF.F.2X2XI.F.2X2XF.F.2X2X",
"K.F.:X2Xj.j.%X%XF.F.2X2XF.F.%X2XL.K.:X:XF.j.%X%XF.j.2X:XB.F.2X:XL.K.2X2XB.B.2X2XK.F.2X2Xj.F.2X2XF.F.2X2XF.F.2X2XF.F.2X2XF.F.2X2X",
"2X2XF.B.2X2XB.K.2X2XG.j.%X2XC.P.2X2XF.B.2X2XF.F.%X%XF.F.2X2XM.G.2X2XF.j.:X:XF.K.:X:XF.F.%X%XF.K.2X2XF.F.2X2XF.F.2X2XF.F.2X2XF.F.",
"2X2XF.I.:X:XK.I.2X2XF.F.%X2XC.(.:X2XF.F.:X:XP.L. X%XL.L.2X%XG.L.@X@XH.J.:X2XK.L.:X:XF.F.%X%XF.I.2X2XF.F.2X2XF.I.2X2XF.F.2X2XF.I.",
"K.F. X%XF.P.2X%XG.F.2X2Xj.J.:X:XH.F.:X2Xj.H.2X2XF.F.2X2XF.H.2X2XH.F.%X%XF.H.2X:XF.H.:X2XF.F.2X2XF.F.2X2XF.F.2X2XF.F.2X2XF.F.2X2X",
"F.F. X XK.K.%X Xk.F.2X:XJ.j.2X2XF.F.:XOXJ.V.2X2XF.F.2X2XH.F.:X:XF.F.%X%XH.F.%X%XG.F.:X:XF.F.2X2XF.F.2X2XF.F.2X2XF.F.2X2XF.F.2X2X"
};
