/* XPM */
static char *_df17dc1b5cb43e1f860e7bdab9766bcPn6UqQh49IgpldDq[] = {
/* columns rows colors chars-per-pixel */
"64 64 149 2 ",
"   c #010101",
".  c #080807",
"X  c #0B0B0B",
"o  c #141414",
"O  c #181717",
"+  c #1B1B1B",
"@  c #242424",
"#  c #282727",
"$  c #2B2B2B",
"%  c #302F2F",
"&  c #343434",
"*  c #383737",
"=  c #3C3C3C",
"-  c #403F3F",
";  c #434343",
":  c #484747",
">  c #484847",
",  c #4C4B4B",
"<  c #504F4F",
"1  c #50504F",
"2  c #545453",
"3  c #585757",
"4  c #585857",
"5  c #5C5B5B",
"6  c #605F5F",
"7  c #60605F",
"8  c #636464",
"9  c #646464",
"0  c #656464",
"q  c #656564",
"w  c #656565",
"e  c #666564",
"r  c #666565",
"t  c #666665",
"y  c #676665",
"u  c gray40",
"i  c #676666",
"p  c #676766",
"a  c #676767",
"s  c #646363",
"d  c #686766",
"f  c #686767",
"g  c #686767",
"h  c #686867",
"j  c #686867",
"k  c #686868",
"l  c #696868",
"z  c #696968",
"x  c DimGray",
"c  c #6A6968",
"v  c #6A6969",
"b  c #6A6A69",
"n  c #6B6A69",
"m  c #6A6A6A",
"M  c #6B6A6A",
"N  c #6B6B6A",
"B  c gray42",
"V  c #6C6B6A",
"C  c #6C6B6B",
"Z  c #6C6C6B",
"A  c #6D6C6B",
"S  c #6C6C6C",
"D  c #6D6C6C",
"F  c #6D6D6C",
"G  c #6D6D6D",
"H  c #6E6D6C",
"J  c #6E6D6D",
"K  c #6E6E6D",
"L  c gray43",
"P  c #6F6E6E",
"I  c #6F6F6E",
"U  c #6F6F6F",
"Y  c #6C6C6C",
"T  c #706F6F",
"R  c #706F6F",
"E  c #70706F",
"W  c #70706F",
"Q  c #717070",
"!  c #717170",
"~  c #717171",
"^  c #727171",
"/  c #727271",
"(  c #727272",
")  c #737272",
"_  c #737372",
"`  c gray45",
"'  c #747373",
"]  c #747473",
"[  c #747474",
"{  c #757474",
"}  c #757574",
"|  c #767574",
" . c #767575",
".. c #767675",
"X. c #777676",
"o. c #777776",
"O. c #747373",
"+. c #787777",
"@. c #787877",
"#. c #797877",
"$. c #787877",
"%. c #797878",
"&. c #797979",
"*. c #7A7979",
"=. c #7A7A79",
"-. c #7B7A79",
";. c gray48",
":. c #7B7A7A",
">. c #7B7B7A",
",. c #7C7B7B",
"<. c #7C7C7B",
"1. c #7D7C7C",
"2. c #7D7D7C",
"3. c #7E7D7D",
"4. c #7F7E7E",
"5. c #7F7F7E",
"6. c #7B7A7A",
"7. c #807F7E",
"8. c #807F7F",
"9. c #80807F",
"0. c #80807F",
"q. c #818080",
"w. c #818180",
"e. c #828181",
"r. c #838281",
"t. c #838282",
"y. c #838382",
"u. c #838383",
"i. c #848383",
"p. c #858484",
"a. c #858584",
"s. c #878686",
"d. c #848383",
"f. c #888786",
"g. c #888787",
"h. c #888787",
"j. c #898888",
"k. c #898988",
"l. c #8A8989",
"z. c #8B8A8A",
"x. c #8C8B8B",
"c. c #8C8C8B",
"v. c #8D8D8C",
"b. c #8E8D8D",
"n. c #8F8E8E",
"m. c #8C8B8B",
"M. c #929292",
"N. c #989797",
"B. c #9B9A9A",
/* pixels */
"@ $ $ @ & ; ; = , ; , , > > 2 2 , 2 2 5 s 2 = & ; ; = = = & ; ; = = = ; 2 2 y M s M 2 , = $ = = $ & @ X + @ @ & = ; = & & $ @ @ ",
":.e.:.^ :.:.X.5 > 5 5 s B X.^ X.@.X.X.:.1.:.:.:.1.e.e.:.X.1.7.1.X.:.5 = , ; , ^ y s 3 s s 5 M y s y C 7 s :.D D M s 8 M ,.:.X.:.",
"T f y T X.' X.f ; , 5 :.^ X.D D s s C ^ ^ M D T D s M T X.D D D D M D ; = > y e.e.e.1.:.@.:.:.:.<.@.:.9.1.i.1.5 ; > 2 f y 6 y M ",
"5 s y f M D y 5 ; ; 2 Z s 0 y 7 y s y D D M E ^ D s M D C D C M D M T = & , Z D D M D M 6 y y y D M y s M X.^ 5 2 5 = 5 M s y 5 ",
"5 s 0 s y D M : = 2 5 T f s M D s s 5 f D M 0 M y y M M M C M y D M M = o & y M h y s f D M D D O.D M 5 s y 2 , 5 5 = 2 y s f M ",
"M 0 h M M Z ^ = + ; y @.T f M D M Z M s M ^ D D y 5 f y M ^ C 0 y s y $ o & 5 Z D X.] ^ D D ^ D D D f s 5 y > $ ; > = 5 M y f ^ ",
"^ Z s s D ^ T = ; > 5 D E T M M D M D E ^ T D M s s M f s Z y y y Y s = + @ 2 M y D X.^ M M D E M y C Z Z y ; $ X ; 2 y ^ M f M ",
"y s 5 y M ^ D 2 y 2 C D ] D Z X.D y y Z M ^ ^ M y y s 0 M y M y M M s = = & 2 M D D D D ^ T D T M y y T y s ; ; ; @ > y y s y y ",
"^ ^ D C y y y 2 M s M E ^ X.Z M D M f M C ^ ' C C M 0 y f y h T y C 5 ; s ; > D T y M E ^ ' ^ ^ D T D M s 5 ; 2 ; @ & y T ^ T ' ",
"X.^ :.X.' E T > = 5 y 5 y h M C ^ M s M X.X.' X.' M M 5 s s Z M M ] 5 5 D ; % 2 M ^ ^ T D E ^ D X.X.^ M M ; & , , = @ C X.M D X.",
"5 s y D M f 2 = s = D X.^ M 5 s y D X.' ] M 5 5 2 > 2 5 , 5 2 y ' ^ ; 5 D 5 X o $ ; 5 ^ X.X.:.:.X.^ s = o   $ 5 2 D ; = 6 2 5 5 ",
"  . . o o o   & y + . @ $ & @ X o $ & $ + X .       . $ & & @ + @ o o 5 5 y $       . + & = = = $ o .     . & & ; > 5           ",
"X           o , y :                           . . .                 @ = & $ & $ + X                       o = s 2 + @ o . . X o ",
"> = & ; = > 2 > ; 5 5 , ; ; , y M 2 & o @ = = - 2 2 5 > + = 2 > 2 2 y 2 , = = s 5 5 2 = $ $ @ $ $ + + @ . o & = 2 2 = 5 ; & ; & ",
"& ; , ; 2 2 5 s ^ 1.j.v.j.j.s.i.f.v.e.^ D ^ y , 5 D 5 2 1.,.M c.x.2 M v.s.e.e.:.1.e.s.f.e.j.X.; 2 , $ , 5 , s D 1.i.s.j.1.:.^ 2 ",
"M s & & & ^ N.v.s.9.^ M D E E ^ X.X.e.i.1.,.i.1.2 > > y 1.D 2 s ] 2 5 X.T T D ^ ' ^ D X.X.+.1.D , , s y h D X.:.:.:.+.y 5 D M D ",
"] X.2 = = +.:.D D ^ D M T D D ^ O.^ D ^ ^ E D :.y = , 2 D D 6 2 D 5 ; ^ <.+.^ D ^ X.^ D 2 = 5 M , 5 7 s M y 5 5 y y 5 2 D y D :.",
"f , = > ; D E T X.^ T ^ X.D ^ X.' C ^ X.X.E T ^ D > ; , ^ D y 5 s M , ; 2 s X.X.^ y 5 2 5 y ; > , 2 5 ' D 5 5 5 5 5 4 7 M s M D ",
"M ; @ 2 5 ^ ] ^ ^ @.:.X.^ ^ X.:.^ T ^ X.^ E T M ^ 5 5 > Z ^ D D y y 1.^ y 5 5 s 2 y M X.^ M <.5 = ; ; y y y y s y h D s y M Z D ",
"Z ; @ @ ; X.X.^ X.' X.] T Z ^ ^ X.X.+.X.^ X.^ T M s M ; y X.^ ^ ^ D 5 D :.:.X.^ D X.D D ^ T X.y = $ = D E f s 5 M D D ^ Z C ' ' ",
"y & = $ ; s X.@.^ ^ T ^ ^ D ^ X.] :.@.^ X.^ M D ^ 6 D 5 M ] +.:.^ ^ @.y 5 5 s y 6 5 6 y X.X.X.^ , , > 5 ; , 2 , y D y Z ^ ^ ^ ^ ",
"& o & + @ 5 = M M ^ X.^ X.X.X.X.X.X.X.' D ' ^ ^ :., 2 , M ^ ^ X.X.' X.:.X.C ^ T D E ^ 5 5 y s 7 , 5 ; ; y s M M y 5 5 s y D E y ",
"  @ ; > @ ; s 5 5 s s M y s 5 2 5 y f y s 5 5 5 ; @ 2 = = M f y M D X.X.:.:.X.X.+.^ ^ ^ D D M $ $ s = > y 5 5 y ^ ^ ' X.^ j 2 @ ",
"X 2 5 2 ;   o o + o + o . .     . . o o o .       + = ;   . X . . o $ ; > , 2 5 y M ^ X.C 5 =   + 2 &   o o + @ = ; ; = & @ .   ",
"> ; 2 , ; @                                     . ; ; 2 , .                   . . X + @ o     o 5 ; $ .                       @ ",
", ; = & & ; = & $ & = = = @ + $ @ ; s y D X.X.D M :.X.X.d.X.^ ^ Z s > & @ X     .         X $ 2 2 = & & & & @ @ @ + @ @ + $ 2 2 ",
"y s y s ^ :.X.s s s , ; 2 2 > & , j.j.d.e.1.:.X.:.:.:.1.@.@.1.,.1.i.j.M.N.j.@.= $ , $ & 2 5 D 5 D D 5 T 5 2 & > 5 = $ > > 2 y 5 ",
"e.d.s.s.e.9.1.s.f.s.s.1.2 > s 2 5 D s y Z ^ T ^ ^ M D D E T D M D ^ ^ D @.9.c.M.& $ = , 5 5 = 5 s.T s ,.X.+.D M ^ M y D 1.e.i.j.",
"^ ^ ^ ^ ^ ^ ^ ^ X.^ ^ @.^ & @ o 2 D 4 7 s y s f M 5 2 T C C D s f D D M D X.^ :.= + ; y 5 & y :.^ 5 5 D M D h s s f X.^ X.X.X.^ ",
"E X.:.X.:.^ ^ X.+.:.+.^ y @ + $ 5 :.^ X.' ^ D D D ^ y 5 E M M ^ ^ ^ ^ X.' ^ ^ X.y 2 2 2 2 1.v.X.y , ; > s s 5 2 M M f D E D T ^ ",
"X.M > s M s 5 5 s > , :., @ 2 y s D M M ^ M C D D D X.s M ^ D T X.] X.X.^ ^ X.:.^ 2 y > y i.^ X.7 5 s s s s 5 f D X.X.^ ^ ^ ^ ^ ",
"X.^ ; M :.] ^ X.X.^ , 2 $ > 2 = s y M C y s C ^ 0 h D D > s +.^ ^ ' ^ ^ ^ ^ ^ :., , 5 2 T ^ D X.s , 9.7 s M T D ^ +.:.^ ^ D y M ",
"D X.5 2 :.X.^ ^ ] ' 1.D @ s = $ h E D D M M M D ^ D ^ M : 5 :.X.X.] ^ ^ ^ D @.X.+ $ = 5 +.' ] ^ 2 = s 5 y T M M ^ X.T ^ X.^ M D ",
"Z ^ 2 2 ] ^ X.^ ^ ^ ^ D ; , > = M :.X.^ D h D M M s M ] 0 5 X.^ ' X.X.:.' X.:.& + 5 = 1 M ^ ^ ^ s > 2 s 5 M D y M D D ^ ' ^ D M ",
"D 2 2 +.C T ^ ' ' ' X.X., = > > 7 X.^ ^ X.D C X.^ D D ^ y 5 ^ :.] ^ ^ X.X.D +   s M $ 2 D M M D ^ y 5 6 6 s D y D C D M T ^ D D ",
"s X.1.:.:.:.X.X.^ y s s & = 2 ; > X.D ^ ' D f ^ ' ^ D D ^ 2 M X.E ^ ^ T X.M   o $ @ $ 2 X.D ^ ' D T M M C M y 5 s h D D D ^ X.X.",
"6 s 5 2 2 , ; $ + . .   & s M M = ^ ^ X.X.X.X.X.X.^ X.^ D 2 5 X.:.:.X.^ X.; @ = & = + o = > , 2 2 2 1 , 2 5 5 5 2 ; = = ; 2 s 2 ",
"                    . . ; s > > @ & s 5 5 2 , ; > 2 5 s s 2 ; 2 ; = & $ + . ; > 5 = = X                   . . X .             . ",
"o X o o o o o = 5 5 5 2 s 5 2 5 >                       .                 + , ; & & > = o . . X o o + o . . . . . + o . o + X . ",
"^ j.M.v.j.v.e.:.X.e.:.M 5 , 5 M X., + + + $ & $ + . . . . o o o o $ ; 2 5 5 y M 2 D 3 ^ D 2 = = < 2 2 , y s ; & > = X @ s y s s ",
"j.j.f.j.v.j.M.M.x.v.v.j.M M M 2 5 D v.M.v.v.j.s.e.^ M 2 = $ , , D N.B.N.M.M.j.j.M.c.v.v.v.v.v.e.s = 5 e.1.s.1.> $ + $ 5 5 D v.M.",
"D C D X.X.:.1.1.s.s.7.i.E U :.D 5 M e.7.X.T D ^ X.:.1.1.; $ $ < M e.e.:.X.^ D ^ ^ T D X.C M y M i.9.:.^ f s D ^ @ @ 2 5 2 M ] ^ ",
"Z D ^ ^ X.:.X.X.:.s.s.9.D = , 2 , s X.M X.^ D T T ^ D D ; , @ 2 D > ^ X.X.' D D ^ D D X.X.^ Z s s D D y M M C C ; $ 2 5 = > ^ D ",
"^ X.X.] :.<.:.1.:.:.s.e.D 2 $ @ > , 5 5 < ^ 1.' T D D ^ , 2 5 2 :.5 y D D y ^ X.X.X.D ] ^ D T M s 5 y D ' ^ ^ ^ y = o $ s y ^ ^ ",
"X.X.:.X.X.:.:.X.+.:.1.e.D 2 > > 2 T X.<.^ 2 7 D ] X.^ T > = & ; ^ y 5 y D y s ^ :.y C ^ ^ E Z Z f 5 y f C X.^ 6 & = $ + = M C ' ",
"X.X.^ ^ ^ ^ ] ^ :.:.:.e.M 2 , ; 2 X.^ ^ X.] 2 7 s M M ^ ; 2 ; @ y D 5 M X.X.D D +.+.s 2 2 s s y 2 s M y s ' 2 . $ 5 5 $ & T ^ ^ ",
"] X.] ^ ^ X.X.X.X.X.:.7.C > 2 ; = ^ D ^ M D ^ y M y f 5 5 y X.$ = D s 2 D ^ :.s s y 7 D 2 y 5 s y D ' D M ' @ 5 5 @ 2 ; & ^ ^ ] ",
"^ ^ X.X.X.^ X.X.' ' ^ X.D , 2 2 ; X.X.X.' C h s y C X.^ f 5 2 @ . ; s 5 s M M , > M :.5 2 s 5 M X.X.^ Z 6 : @ > . + > , , M X.^ ",
"+.<.:.^ X.X.^ D D D ^ :.5 ; M 5 2 D ' ^ ^ ^ X.:.M T M M E 5 2 , X   o @ @ @ + & > 2 y 2 6 y 2 = = 2 5 & X         $ @ & ; 5 X.+.",
"M y = X & - = @ o + $ & + ; , 2 ; f 1.+.D 2 - - & = 5 D D , , 5 = .                 + & @ @ o             o @ o @ ; s 5 & $ & > ",
"X X                       = > & . o % & o           . & & & , ; = > & @ @ @ = @ X             X o . . @ , 2 ; > @ $ = = &       ",
"    $ > + X + $ @ & ; & ; = @ @ @ .       + X + @ +       = 5 2 & & M ^ , 2 M D s ; $ $ $ $ = 5 M > & , 2 5 y 5 > > 5 y 2 $ @ . ",
"^ D s.v.v.j.x.e.e.f.v.N.M.s.y ; 2 , 2 2 X.1.] :.:.D 5 2 2 ' 1.M D :.X.@.7.1.' s.i.^ 5 2 y 5 , ; = 5 X.X.:.:.:.<.1.5 X.i.:.1.f.e.",
"s.s.i.s.s.1.:.X.^ D D X.+.e.j.f.5 = 5 X.^ D X.:.X.X.1.s.i.:.+.^ s D D ^ D D E D :.e.s 2 ; & ; ; s M.d.1.X.^ ] ^ X.2 2 ^ E X.:.1.",
"^ M M ' X.X.X.X.^ D Z C ^ 1.s.j.y & & 5 M M s h D M D M M h y s y 5 2 5 M M D D ^ :.:.2 ; 2 2 5 D X.D M h ^ ^ X.^ X.< 6 C M ^ T ",
"^ D ^ ^ X.X.X.X.^ T X.' Z D 7.i.:.2 @ $ ^ h y M E X.^ D M D y D f C D 2 5 Z M M y ] s.s ; 5 2 s y 0 M y f ] D T ^ y 5 s X.X.^ X.",
"X.D M M ^ E ^ ^ ^ D ^ ^ ^ ] E ^ ' 5 5 + 2 f C C D X.D M C y y C ^ X.+.C 5 5 M M M ^ :.:.; ; ; s 6 y y y T ' ^ ^ D D s 2 X.^ X.+.",
"X.^ D ^ X.X.^ X.:.:.+.^ T D D D X.2 5 $ # ^ y Z M T ^ ^ D D E D D C D ^ s 5 2 D ^ T ^ y 2 ; 3 5 5 s M D ^ X.^ M s T X.5 D X.] X.",
"] ^ ] X.X.+.:.X.+.X.^ D ^ D M D ^ 2 ; & @ M M M D X.X.X.^ ^ ^ M Z T D f s C 5 s Z M 5 s & & , s y C y f D ^ ' y s M ^ 7 2 :.' X.",
"X.+.X.^ X.X.X.:.:.^ T E X.D f C D 5 s y 5 X.^ M C ^ ^ ^ X.^ X.^ D D ^ ^ ^ f 5 5 ] 2 s y & = > 5 s y D ^ ' ^ X.^ ^ D D C 2 y ^ :.",
"D M D D ' X.X.X.^ ^ ' T D T y y ] ; s y s +.^ D ^ X.^ D D ^ ^ C D D D T ^ ^ M s 5 2 :.5 > M 5 M 5 6 M D D D f D ^ D ^ ' ^ s 2 ^ ",
"^ ' +.] ^ X.1.1.:.1.:.T D M s y ; @ 2 2 2 T ^ h y s s D D M T T D D C X.D M s M M M s $ 2 2 $ 2 h h ^ X.D T D ^ ^ M X.:.X.1.2 ^ ",
"$ $ @ @ $ $ & = = $ @ @ o o X .   @ ; , @ + $ @ o . o + + + + + o O @ + o . . X X X   . 2 M $ X $ + + + $ = > 1 > > ; * & & @ # ",
"                                . ; & $ $                                 . X .     X ; 5 s 2                                   "
};
